<?xml version="1.0" encoding="UTF-8" standalone="no"?>
<!-- Created with Inkscape (http://www.inkscape.org/) -->

<svg
   width="245.83521mm"
   height="309.27707mm"
   viewBox="0 0 245.83521 309.27707"
   version="1.1"
   id="svg1"
   xml:space="preserve"
   xmlns:inkscape="http://www.inkscape.org/namespaces/inkscape"
   xmlns:sodipodi="http://sodipodi.sourceforge.net/DTD/sodipodi-0.dtd"
   xmlns="http://www.w3.org/2000/svg"
   xmlns:svg="http://www.w3.org/2000/svg"><sodipodi:namedview
     id="namedview1"
     pagecolor="#ffffff"
     bordercolor="#000000"
     borderopacity="0.25"
     inkscape:showpageshadow="2"
     inkscape:pageopacity="0.0"
     inkscape:pagecheckerboard="0"
     inkscape:deskcolor="#d1d1d1"
     inkscape:document-units="mm"><inkscape:page
       x="0"
       y="0"
       width="245.83521"
       height="309.27707"
       id="page2"
       margin="0"
       bleed="0" /></sodipodi:namedview><defs
     id="defs1" /><g
     inkscape:label="Layer 1"
     inkscape:groupmode="layer"
     id="layer1"
     transform="translate(666.79558,333.60659)"><g
       id="g1513"
       transform="matrix(2.112997,0,0,2.112997,854.45249,1228.4941)"
       inkscape:export-filename="logo.svg"
       inkscape:export-xdpi="300"
       inkscape:export-ydpi="300"><path
         style="fill:#e3cfa1"
         d="m -671.8326,-593.84476 c -1.65463,-3.50706 -9.0079,-9.22285 -15.42805,-11.99243 -1.93578,-0.83507 -5.31605,-2.28629 -7.51171,-3.22494 -10.97387,-4.69133 -18.01697,-11.51029 -21.81225,-21.11809 -1.93869,-4.90781 -3.40824,-11.68191 -3.3624,-15.49937 l 0.0252,-2.09782 1.08956,2.27738 c 4.89836,10.23843 6.35438,12.96424 8.39539,15.71695 2.77935,3.74851 5.91004,6.51389 9.30486,8.2191 2.62009,1.31607 6.42086,2.56445 7.80763,2.56445 0.78698,0 0.78058,-0.0475 -0.13817,-1.02542 -0.52983,-0.56399 -2.24856,-1.78896 -3.81938,-2.72217 -5.57768,-3.31364 -8.19782,-6.50908 -8.19782,-9.9978 0,-1.0941 0.11247,-1.98928 0.24992,-1.98928 0.13746,0 1.38047,0.94466 2.76225,2.09925 2.68284,2.24172 4.33793,3.17177 10.35956,5.82138 6.71965,2.95675 10.88594,6.26872 14.50876,11.53367 1.68994,2.45594 4.20008,8.32233 5.27109,12.31895 0.79386,2.96236 1.59577,10.04785 1.13719,10.04785 -0.11114,0 -0.39988,-0.41925 -0.64163,-0.93166 z m 7.35107,-2.07035 c -3.7706,-4.53017 -4.76706,-6.81255 -4.76706,-10.91891 0,-3.15225 0.11357,-3.58612 1.81938,-6.95032 1.00066,-1.97351 1.96966,-3.53502 2.15333,-3.47004 0.18367,0.065 0.97334,1.32201 1.75482,2.79337 l 1.42087,2.6752 -1.29681,2.47635 c -1.14504,2.18653 -1.29566,2.86689 -1.28689,5.81324 0.009,2.9071 0.19531,3.74919 1.44925,6.53803 0.79162,1.76063 1.54415,3.2047 1.67228,3.20905 0.27003,0.009 1.86996,-3.53233 2.75985,-6.10898 0.40945,-1.18557 0.56161,-2.8929 0.46127,-5.17588 -0.15744,-3.58239 -0.90951,-5.58829 -4.12216,-10.99457 -1.0243,-1.72371 -1.35484,-2.82798 -1.51452,-5.0598 -0.17914,-2.50368 -0.0664,-3.13657 0.9161,-5.14483 1.23703,-2.52839 1.8876,-2.9108 1.8876,-1.10952 0,1.91901 0.81764,3.77891 3.34742,7.6144 3.41223,5.17342 4.21164,7.53502 4.03111,11.90869 -0.11324,2.7437 -0.39094,4.04691 -1.25965,5.9116 -1.13211,2.43004 -5.93078,8.99493 -6.57494,8.99493 -0.19392,0 -1.47698,-1.35091 -2.85125,-3.00201 z m 12.28855,-0.41407 c 0.55787,-7.04935 3.77467,-15.72268 7.66425,-20.66485 3.60236,-4.57722 7.35307,-7.27536 14.30809,-10.2928 4.70297,-2.04039 7.40857,-3.61292 10.05386,-5.84347 1.04617,-0.88215 2.05584,-1.6039 2.24371,-1.6039 0.67528,0 -0.18082,4.263 -1.20812,6.01596 -1.26771,2.16318 -2.90999,3.56006 -7.15237,6.08364 -3.01443,1.79313 -5.70601,4.04914 -4.8309,4.04914 1.2407,0 6.94329,-1.90794 9.06028,-3.03133 3.21799,-1.70765 7.59444,-5.85158 9.99759,-9.46643 1.59904,-2.40531 5.95372,-10.65396 5.95372,-11.27757 0,-0.10504 0.55345,-1.36676 1.2299,-2.80381 l 1.2299,-2.61281 0.0123,2.30485 c 0.0398,7.44115 -3.51384,17.85692 -8.19789,24.02853 -4.50936,5.94143 -9.8007,9.57247 -20.27637,13.9141 -3.5763,1.4822 -7.76535,3.43214 -9.30899,4.3332 -3.13886,1.83222 -7.43505,5.6644 -9.19117,8.19848 -0.63693,0.91909 -1.3082,1.67108 -1.49172,1.67108 -0.18351,0 -0.22675,-1.35091 -0.0961,-3.00201 z m 0.73209,-18.21548 c -0.35726,-1.65234 -2.03644,-5.04242 -3.35399,-6.77134 -1.26728,-1.66296 -1.23168,-2.0321 0.25538,-2.64806 1.72411,-0.71415 4.45813,-3.80768 5.61195,-6.34988 0.53491,-1.17858 1.2813,-3.80784 1.65863,-5.84279 0.37733,-2.03495 0.86607,-4.17777 1.08608,-4.76181 0.58653,-1.55702 2.78553,-3.67698 4.11753,-3.96953 l 1.15852,-0.25446 -1.47434,-2.05217 c -1.77398,-2.46925 -2.43162,-2.8601 -4.81239,-2.8601 -2.27583,0 -4.62042,1.58499 -6.76944,4.57627 -1.64434,2.28879 -3.18909,3.29107 -5.07236,3.29107 -0.96825,0 -1.9975,-0.7066 -4.76809,-3.27341 -2.93663,-2.72063 -4.39227,-3.69168 -8.61994,-5.75033 -5.95741,-2.90094 -13.05385,-7.50692 -15.5235,-10.0756 -0.95776,-0.99617 -2.29389,-2.82321 -2.96917,-4.06009 l -1.2278,-2.24888 -0.28955,1.54345 c -0.79401,4.2324 0.65066,8.39644 4.43573,12.78535 2.31104,2.67972 1.78711,2.69299 -2.04333,0.0518 -2.59028,-1.7861 -2.59299,-1.78687 -2.3418,-0.65961 0.13831,0.62071 0.71697,2.11407 1.28591,3.31859 0.83341,1.76441 1.60651,2.59177 3.97814,4.2573 1.61904,1.13701 3.37193,2.17476 3.89531,2.30612 0.52338,0.13136 0.95161,0.40852 0.95161,0.61591 0,0.44719 -1.5003,0.12379 -4.34774,-0.9372 -1.1387,-0.42429 -2.12072,-0.77153 -2.18229,-0.77165 -0.0616,-1.1e-4 0.25354,0.71618 0.70023,1.59176 1.53938,3.01742 4.57316,5.04057 8.42461,5.61813 2.79675,0.4194 2.42244,1.06823 -0.62798,1.08855 l -2.58794,0.0172 1.54231,1.36334 c 1.68953,1.49348 3.93841,2.32882 6.26955,2.32882 1.70497,0 1.95289,0.49201 0.57306,1.13726 -0.90765,0.42445 -0.89432,0.45171 0.51759,1.05806 0.79709,0.34231 2.52065,0.7552 3.83015,0.91752 1.3095,0.16233 2.38091,0.41591 2.38091,0.56351 0,0.87498 -3.28359,4.8969 -5.29409,6.48449 -2.73611,2.16058 -4.16501,2.68769 -4.69903,1.73344 -0.58845,-1.05149 -5.32975,-4.64657 -8.22598,-6.23731 -1.4803,-0.81305 -4.59004,-2.30858 -6.91054,-3.3234 -2.3205,-1.01482 -5.06889,-2.42981 -6.10754,-3.14442 l -1.88845,-1.29928 v -16.12885 c 0,-8.97622 -0.16114,-16.12885 -0.36337,-16.12885 -0.19985,0 -0.59533,0.2795 -0.87884,0.62111 -0.40038,0.48243 -1.52107,0.6211 -5.01954,0.6211 -2.47724,0 -4.50407,-0.15214 -4.50407,-0.3381 0,-0.18595 4.09024,-3.5865 9.08943,-7.55678 l 9.08944,-7.21868 0.0201,-4.24422 c 0.0122,-2.56684 -0.14354,-4.24422 -0.39396,-4.24422 -0.22774,0 -0.41407,-0.74533 -0.41407,-1.65628 v -1.65629 h 4.60825 4.60826 l -0.28108,2.48443 c -0.15459,1.36643 -0.17065,2.48442 -0.0357,2.48442 0.23567,0 6.36437,-4.90015 17.80777,-14.23807 2.9606,-2.41588 5.60444,-4.39309 5.8752,-4.3938 0.46704,-10e-4 9.22077,6.89344 21.03937,16.57115 2.9606,2.42431 10.69336,8.66124 17.18392,13.85987 6.49055,5.19862 11.86311,9.60831 11.93902,9.7993 0.0759,0.191 -1.88569,0.34727 -4.35912,0.34727 -3.40011,0 -4.72164,-0.15724 -5.41742,-0.64458 l -0.92027,-0.64459 v 16.17736 16.17737 l -2.18187,1.39572 c -1.20003,0.76765 -4.2018,2.24691 -6.6706,3.28725 -5.85637,2.46783 -9.35315,4.5791 -12.76374,7.70643 -2.55318,2.34113 -6.54057,7.61184 -6.54057,8.64562 0,1.09895 -0.79118,0.76691 -1.0525,-0.4417 z m 25.29203,-43.59921 0.32045,-12.43681 -2.65286,-2.11764 c -1.45907,-1.16469 -5.07516,-4.10138 -8.03577,-6.52596 -12.61879,-10.33415 -24.3943,-19.78249 -24.89394,-19.97422 -0.29595,-0.11357 -3.01447,1.80095 -6.04117,4.25449 -13.39272,10.85658 -20.93249,16.99004 -22.32532,18.16121 -0.8259,0.69448 -2.91318,2.38067 -4.6384,3.7471 l -3.13677,2.48442 -0.0162,4.76181 c -0.0162,4.77973 0.51123,15.37464 1.09257,21.94572 l 0.31137,3.5196 0.29788,-4.1407 c 0.16383,-2.27739 0.30639,-7.40151 0.31681,-11.38693 0.0104,-3.98543 0.16075,-8.50065 0.33409,-10.03382 l 0.31515,-2.78759 8.33688,-6.73602 c 4.58528,-3.70482 12.08465,-9.77078 16.66526,-13.47991 l 8.32839,-6.74387 6.1086,4.94824 c 3.35973,2.72153 9.51289,7.73658 13.67369,11.14456 4.1608,3.40797 8.92956,7.26511 10.59726,8.57141 l 3.03217,2.3751 0.27394,9.99406 c 0.15067,5.49674 0.41114,11.95055 0.57883,14.3418 l 0.30488,4.34774 0.26587,-2.89849 c 0.14623,-1.59417 0.41007,-8.49506 0.58632,-15.3353 z m -21.40295,5.6062 c 0.83114,8.5e-4 2.11417,0.36921 2.85119,0.81859 l 1.34003,0.81704 0.68974,-1.33618 c 0.37936,-0.7349 1.90314,-2.59391 3.38619,-4.13115 1.48305,-1.53724 2.48234,-2.79497 2.22064,-2.79497 -0.93644,0 -9.16335,2.91377 -10.71096,3.79356 -2.02578,1.15162 -4.18124,3.149 -4.92023,4.55939 -0.57833,1.10376 -0.57425,1.10293 1.52619,-0.31056 1.44396,-0.97171 2.58113,-1.41678 3.61721,-1.41572 z m 1.07479,5.75935 c -0.38962,-0.63041 0.45647,-1.36646 1.22969,-1.06975 0.37201,0.14275 0.53921,0.51412 0.39761,0.88312 -0.28261,0.73645 -1.22098,0.84407 -1.6273,0.18663 z m -65.98323,-36.96981 c 0.13515,-0.14784 3.30279,-0.82237 7.0392,-1.49897 3.73641,-0.67659 7.21272,-1.33042 7.72513,-1.45295 0.83187,-0.19892 0.93166,-0.0667 0.93166,1.23435 v 1.45714 l -2.58794,0.002 c -1.42337,9.2e-4 -5.01025,0.12 -7.97086,0.26461 -2.9606,0.14462 -5.27233,0.14198 -5.13719,-0.006 z m 89.5724,-0.23797 c -3.97091,-0.21823 -4.27,-0.30061 -6.09473,-1.67874 -1.0554,-0.79709 -1.92466,-1.55158 -1.93171,-1.67665 -0.007,-0.12507 3.38775,0.38196 7.54398,1.12673 4.15623,0.74477 8.65287,1.53947 9.99253,1.76599 1.33965,0.22652 2.53528,0.5114 2.65695,0.63307 0.25416,0.25416 -6.04806,0.1659 -12.16702,-0.1704 z m -69.11461,-12.00272 c -9.58745,-3.2289 -15.73369,-5.54904 -15.18464,-5.73206 0.25098,-0.0837 2.09321,0.23459 4.09385,0.70722 2.00064,0.47263 6.33934,1.49728 9.64155,2.277 3.30221,0.77972 7.16859,1.65483 8.59196,1.94468 1.42336,0.28985 2.58794,0.64357 2.58794,0.78605 0,0.27742 -1.59144,1.78832 -2.27739,2.16214 -0.22774,0.1241 -3.58171,-0.84116 -7.45327,-2.14503 z m 52.25033,1.29529 c -0.61196,-0.63874 -1.11265,-1.26652 -1.11265,-1.39506 0,-0.12855 0.60558,-0.34152 1.34573,-0.47328 0.74015,-0.13175 6.14431,-1.36729 12.00923,-2.74563 5.86493,-1.37835 10.98905,-2.49823 11.38694,-2.48863 0.39788,0.01 -1.32622,0.77668 -3.83135,1.70463 -2.50512,0.92795 -7.50586,2.78342 -11.11276,4.12325 -3.60689,1.33984 -6.78625,2.43607 -7.06524,2.43607 -0.27899,0 -1.00795,-0.5226 -1.6199,-1.16135 z m -46.68537,-13.14909 c -4.65073,-4.65488 -8.30702,-8.46342 -8.12509,-8.46342 0.73323,0 19.32785,14.57499 19.08856,14.96216 -0.10873,0.17593 -0.71742,0.68996 -1.35265,1.14228 l -1.15496,0.8224 z m 39.67222,7.48506 c -0.62628,-0.55123 -1.13869,-1.09523 -1.13869,-1.2089 0,-0.11367 3.92778,-3.24366 8.7284,-6.95554 11.40412,-8.81774 10.96329,-8.49181 10.52422,-7.78138 -0.53082,0.85889 -16.42681,16.977 -16.72739,16.96114 -0.13632,-0.007 -0.76026,-0.46409 -1.38654,-1.01532 z m -24.71288,-5.27199 c -0.20978,-0.52021 -1.15322,-3.08865 -2.09653,-5.70765 -0.94332,-2.61899 -2.55879,-6.99778 -3.58995,-9.73065 -2.30576,-6.11091 -2.5638,-7.09957 -1.29687,-4.96884 2.27934,3.8334 9.85403,18.37819 9.85403,18.92155 0,0.32508 -0.56009,1.00513 -1.24463,1.51124 l -1.24463,0.92019 z m 18.39831,0.23745 c -0.45548,-0.34039 -1.07827,-0.76292 -1.38399,-0.93896 -0.4361,-0.25112 -0.22538,-0.98096 0.97813,-3.38773 3.10683,-6.21302 9.40271,-17.81083 9.57506,-17.63848 0.0978,0.0978 -0.21634,1.17752 -0.69799,2.39948 -0.48166,1.22196 -2.18621,5.85789 -3.78791,10.30207 -3.66945,10.1815 -3.61066,10.06522 -4.6833,9.26362 z m -10.03377,-10.5007 c 0.44591,-10.55028 1.27364,-23.59682 1.48376,-23.3867 0.22707,0.22707 1.65625,22.47617 1.69457,26.38066 l 0.0233,2.37203 -1.02291,-0.46607 c -0.79915,-0.36412 -1.17517,-0.33971 -1.71892,0.11156 -0.64796,0.53776 -0.6797,0.19181 -0.45978,-5.01148 z"
         id="path1519"
         sodipodi:nodetypes="ssssscssssssssssssssssssscscscssssssssssssssssssssssscssssssssssssssscsssssssscssssssssssssscssssssssssscsssssscssscccssscssssscccssssssccsssssscsscssscsscssscsscsscsscsssssssssssssssccsssssssssssssssssssssscsssssssscssssscssssssscssssssssssscssss" /><path
         style="fill:#ceaa5a"
         d="m -671.96333,-594.40585 c -1.035,-1.93391 -7.21286,-7.36769 -10.50513,-9.23984 -1.77004,-1.00655 -5.66768,-2.83171 -8.66141,-4.05592 -9.57681,-3.9162 -13.80418,-6.56108 -18.4859,-11.56586 -3.30573,-3.53384 -5.81229,-7.92699 -7.59621,-13.31356 -1.33608,-4.03435 -3.04343,-13.10454 -2.67488,-14.21019 0.0834,-0.25021 1.05162,1.56835 2.15159,4.04125 6.09446,13.70122 11.24224,19.66861 19.50176,22.60677 7.5721,2.69363 7.93592,1.44562 0.82814,-2.84078 -5.48376,-3.30702 -8.35297,-7.0479 -8.00199,-10.433 l 0.13465,-1.29873 2.8985,2.33858 c 1.73456,1.39949 4.64438,3.14403 7.24623,4.34438 8.81266,4.06566 9.56288,4.53403 13.47428,8.41211 3.28337,3.25541 4.02857,4.2764 5.8934,8.07437 1.17412,2.39126 2.51629,5.74523 2.98259,7.45327 0.79563,2.91437 1.86495,10.29063 1.53906,10.61652 -0.0814,0.0814 -0.40754,-0.33679 -0.72468,-0.92937 z m 7.48982,-1.73142 c -5.66805,-6.70099 -6.28148,-11.85622 -2.2328,-18.76424 l 1.48679,-2.53683 1.44318,2.81537 1.44319,2.81538 -1.239,2.51156 c -0.68146,1.38137 -1.3665,3.2903 -1.52234,4.24208 -0.34062,2.08042 0.53477,5.8244 2.07034,8.8547 0.58792,1.16021 1.01176,2.25105 0.94185,2.42409 -0.0699,0.17304 -1.14595,-0.88991 -2.39121,-2.36211 z m 12.40884,0.81237 c 0,-6.12246 3.14327,-15.20282 7.28378,-21.04158 3.26189,-4.59978 6.74611,-7.1916 14.13114,-10.51181 5.58819,-2.51237 8.76638,-4.40241 10.98608,-6.53332 l 1.55276,-1.49066 -0.009,1.84383 c -0.0187,3.80026 -2.53948,6.98412 -8.10115,10.23231 -3.49757,2.04269 -5.59119,3.96308 -4.54767,4.17138 1.06609,0.21281 6.37698,-1.51542 9.10953,-2.96436 2.91737,-1.54693 7.74034,-6.16685 9.90573,-9.48869 0.85244,-1.30769 2.52673,-4.38216 3.72064,-6.83216 1.19391,-2.45 2.67888,-5.47936 3.29992,-6.73193 l 1.12918,-2.27738 -0.25024,2.89849 c -1.42408,16.49494 -9.83388,28.45661 -24.40157,34.70753 -1.36643,0.58633 -4.33463,1.83946 -6.596,2.78473 -7.26866,3.03836 -12.21303,6.53041 -15.42594,10.89484 l -1.7871,2.42761 z m -7.622,-1.6619 c 2.47078,-5.77048 2.31665,-10.39677 -0.50803,-15.24858 -2.88516,-4.95569 -3.5969,-6.80277 -3.63483,-9.43294 -0.026,-1.8012 0.23252,-3.09001 0.91806,-4.57744 l 0.95421,-2.07035 0.9417,2.79814 c 0.51793,1.53898 1.8031,4.05884 2.85592,5.5997 6.2836,9.19637 5.7941,16.12013 -1.76288,24.93481 l -1.24247,1.44925 z m 7.89804,-18.86106 c -0.38684,-1.22718 -1.44875,-3.32342 -2.35981,-4.65829 l -1.65647,-2.42705 0.93846,-0.61988 c 4.27591,-2.82435 6.41334,-6.40031 7.72602,-12.92576 0.43565,-2.16562 1.08601,-4.50588 1.44525,-5.20057 0.89215,-1.72524 2.60831,-2.99248 4.05258,-2.99248 h 1.20085 l -1.59268,-2.17386 c -0.88457,-1.20737 -2.2897,-2.51979 -3.16045,-2.95192 -1.37338,-0.68158 -1.78096,-0.71432 -3.28712,-0.26407 -1.6399,0.49022 -3.07407,1.73436 -6.82604,5.92153 -2.63538,2.94106 -4.35513,2.63358 -8.76493,-1.5671 -2.67413,-2.54732 -4.12084,-3.51374 -8.54512,-5.70822 -10.23162,-5.07498 -16.16018,-9.6812 -18.49758,-14.37175 -0.89589,-1.7978 -1.05319,-1.93789 -1.26959,-1.13064 -0.13584,0.50678 -0.24954,2.14939 -0.25265,3.65025 -0.007,3.30193 1.47202,6.62064 4.40283,9.88041 1.03363,1.14964 1.70883,2.09025 1.50047,2.09025 -0.20837,0 -1.57033,-0.82918 -3.02658,-1.84261 -1.45625,-1.01344 -2.71277,-1.77758 -2.79226,-1.69808 -0.3657,0.36569 0.93691,3.88758 2.02022,5.46212 1.29983,1.88924 2.59142,2.92944 5.90883,4.75879 1.16906,0.64466 1.83267,1.17549 1.4747,1.17961 -0.85678,0.01 -4.58956,-1.24027 -5.24964,-1.75816 -0.7094,-0.55658 -0.67503,0.26013 0.0717,1.70419 1.48899,2.8794 6.2809,5.85846 9.42352,5.85846 0.41414,0 0.75299,0.18633 0.75299,0.41407 0,0.22774 -1.05731,0.41407 -2.34957,0.41407 h -2.34956 l 1.00384,1.0898 c 1.37873,1.4968 3.96865,2.61685 6.07619,2.62774 1.72488,0.009 2.36709,0.63018 1.1387,1.10156 -0.34161,0.13109 -0.62111,0.36731 -0.62111,0.52493 0,0.47006 2.52838,1.2354 5.05286,1.5295 l 2.36141,0.2751 -0.80529,1.57849 c -1.0529,2.06385 -4.55983,5.54808 -6.66543,6.62228 l -1.66658,0.85022 -2.00784,-1.87809 c -2.80172,-2.62068 -7.65598,-5.70502 -11.46948,-7.28756 -4.08307,-1.69442 -7.81046,-3.56567 -9.30807,-4.67289 l -1.16394,-0.86054 v -16.34208 c 0,-15.92565 -0.0197,-16.32426 -0.77278,-15.64272 -0.64633,0.58491 -1.52502,0.68011 -5.36966,0.58176 l -4.59688,-0.11759 9.30333,-7.42391 9.30333,-7.42391 v -4.07954 c 0,-3.24428 -0.12717,-4.12833 -0.62111,-4.31788 -0.34595,-0.13275 -0.6211,-0.74819 -0.6211,-1.38925 0,-1.3926 0.68346,-1.55066 5.69346,-1.31673 l 3.41608,0.15951 v 1.17393 c 0,0.64566 -0.18633,1.28909 -0.41407,1.42984 -0.42186,0.26073 -0.59433,2.27739 -0.19477,2.27739 0.12062,0 5.51872,-4.28563 11.99578,-9.52362 6.47706,-5.23799 11.92689,-9.52361 12.11073,-9.52361 0.18385,0 5.08058,3.82564 10.88162,8.50143 5.80104,4.67579 16.96156,13.66629 24.80117,19.97889 l 14.25383,11.47746 -4.41295,0.11745 c -3.57324,0.0951 -4.61466,-0.0147 -5.47298,-0.57709 l -1.06003,-0.69456 0.0605,16.23241 c 0.0563,15.11173 0.009,16.28938 -0.68641,17.05768 -0.71378,0.78872 -2.91058,1.92084 -11.10911,5.72508 -2.03334,0.9435 -4.83712,2.52905 -6.23064,3.52344 -3.2352,2.30859 -7.3354,6.68785 -8.96474,9.57488 -0.69801,1.2368 -1.31046,2.24873 -1.361,2.24873 -0.0505,0 -0.40839,-1.00406 -0.79522,-2.23124 z m 25.78121,-41.8052 c 0.24247,-6.79804 0.34839,-12.50967 0.23539,-12.69251 -0.19012,-0.30762 -16.7693,-13.92187 -30.14906,-24.75738 l -5.71974,-4.63209 -7.53051,6.10493 c -4.14178,3.35771 -12.25586,9.92406 -18.03129,14.59188 l -10.50078,8.48695 0.22902,9.73065 c 0.12596,5.35186 0.47204,12.43246 0.76908,15.73467 l 0.54006,6.00402 0.26775,-3.72663 c 0.14727,-2.04965 0.31184,-7.3601 0.36572,-11.801 0.0539,-4.44091 0.21336,-9.39325 0.3544,-11.0052 l 0.25643,-2.93084 5.38292,-4.33271 c 2.9606,-2.38299 10.40174,-8.42421 16.53587,-13.42494 6.13413,-5.00073 11.2959,-9.04863 11.4706,-8.99533 0.17471,0.0533 4.16443,3.22093 8.86606,7.03919 4.70164,3.81826 12.11725,9.83264 16.47915,13.36528 l 7.93072,6.42298 0.27334,10.13983 c 0.15034,5.5769 0.42002,12.28264 0.5993,14.90163 l 0.32596,4.76181 0.30438,-3.31256 c 0.16741,-1.82191 0.50276,-8.87459 0.74523,-15.67263 z m -23.0669,5.4968 c 1.52182,-0.44179 3.39178,-0.17229 4.74523,0.6839 0.84111,0.53209 0.96817,0.46503 1.84225,-0.9723 0.51636,-0.84909 2.14215,-2.80019 3.61286,-4.33577 l 2.67404,-2.79197 -2.03187,0.60545 c -4.50258,1.34168 -8.24602,2.74555 -9.89,3.70899 -1.79812,1.05377 -4.32872,3.60304 -5.20851,5.24695 -0.43353,0.81007 -0.2625,0.75245 1.19638,-0.403 0.93623,-0.74151 2.31306,-1.52552 3.05962,-1.74225 z m 2.80663,5.03518 c 0,-0.50862 0.26736,-0.86265 0.65147,-0.86265 0.3856,0 0.59683,0.28172 0.51759,0.69031 -0.20147,1.03881 -1.16906,1.18145 -1.16906,0.17234 z m -57.7628,-38.1434 c 7.73786,-1.47966 7.32963,-1.47459 7.17021,-0.0891 l -0.13102,1.13869 -6.62512,0.069 -6.62513,0.069 z m 75.47667,-0.283 c -1.07496,-0.83688 -1.91345,-1.56246 -1.86332,-1.61239 0.0868,-0.0864 15.55937,2.57549 16.861,2.90075 0.34161,0.0854 -2.45336,0.17277 -6.21105,0.19423 l -6.83216,0.039 z m -11.01716,-9.19506 -1.37766,-1.17993 6.13947,-1.48929 c 7.31009,-1.77324 17.09358,-3.99515 17.46727,-3.96694 0.14639,0.011 -1.41082,0.65064 -3.46047,1.42132 -3.91059,1.4704 -16.26525,6.02516 -16.97688,6.25882 -0.22774,0.0748 -1.03402,-0.39502 -1.79173,-1.04398 z m -51.52189,-1.0564 c -6.90826,-2.35079 -14.82687,-5.29788 -14.66634,-5.4584 0.1162,-0.11621 21.26413,4.6296 22.59777,5.07117 0.75959,0.25149 -1.0478,2.25344 -1.99752,2.21255 -0.35884,-0.0155 -3.0291,-0.83685 -5.93391,-1.82532 z m 5.07443,-11.89951 -7.6603,-7.9272 4.14071,3.18624 c 2.27738,1.75244 6.33415,4.89058 9.01503,6.97364 l 4.87434,3.78739 -0.90933,0.96794 c -0.50013,0.53236 -1.10976,0.96146 -1.35474,0.95356 -0.24497,-0.008 -3.89254,-3.58162 -8.10571,-7.94157 z m 39.24675,7.02223 -1.1251,-0.92961 5.47284,-4.19065 c 3.01006,-2.30485 7.24299,-5.54329 9.40651,-7.19651 l 3.93367,-3.00587 -6.88716,6.98948 c -3.78794,3.84422 -7.31526,7.5019 -7.83849,8.12818 -1.15147,1.37824 -1.51206,1.40319 -2.96227,0.20498 z m -24.79283,-5.57123 c -0.24463,-0.63545 -1.64255,-4.50933 -3.10649,-8.60862 -1.46395,-4.0993 -2.94701,-8.08192 -3.29569,-8.85026 -0.34868,-0.76835 -0.555,-1.47596 -0.45849,-1.57247 0.0965,-0.0965 2.35748,3.93969 5.02438,8.96933 5.11834,9.65293 5.12959,9.69289 3.04367,10.80925 -0.62956,0.33693 -0.84018,0.20658 -1.20738,-0.74723 z m 17.85036,0.23894 -1.02838,-0.85554 2.79492,-5.44526 c 3.38437,-6.59368 7.50049,-14.03961 7.13033,-12.89852 -0.29411,0.90663 -6.58733,18.18706 -7.04976,19.35778 -0.36136,0.91483 -0.57947,0.89612 -1.84711,-0.15846 z m -9.52137,-6.05259 c 0.005,-0.62628 0.27935,-5.23799 0.60973,-10.24824 0.33037,-5.01025 0.6288,-10.41387 0.66316,-12.00804 l 0.0625,-2.89849 0.34153,2.48442 c 0.44792,3.25827 1.65663,23.50297 1.41752,23.74208 -0.10174,0.10173 -0.47687,-0.0573 -0.83364,-0.35337 -0.49132,-0.40776 -0.76493,-0.42207 -1.12799,-0.059 -0.77315,0.77315 -1.14248,0.55818 -1.13281,-0.65936 z"
         id="path1518"
         sodipodi:nodetypes="sssssssssscssssssssscccssssssssscssssssscsssscssssscssscssscsssscsssssssscsssssscssssscssssscsscssscssscccsssscssssssscsscssssssssssscsscsscssscssssscsscsssssscssssssssssscccssssscsscssssssssssscsscsssscsscssssssssssscssssssscsssss" /><path
         style="fill:#7687a5"
         d="m -663.31401,-594.87994 c -2.10922,-2.2819 -4.48273,-5.78781 -5.13322,-7.58227 -1.38498,-3.82065 -0.69987,-8.25264 1.95445,-12.64347 l 1.27562,-2.11018 1.39881,2.68363 1.3988,2.68364 -1.24833,2.53572 c -2.1959,4.46051 -2.0055,8.29968 0.67384,13.58711 0.5531,1.09148 0.94419,1.98452 0.86909,1.98452 -0.0751,0 -0.61018,-0.51242 -1.18906,-1.1387 z m 11.24934,0.60968 c 0,-2.00855 1.01106,-7.59446 1.92784,-10.65088 1.82269,-6.07664 4.70625,-11.096 8.52289,-14.83563 3.03428,-2.97306 4.25171,-3.72851 12.39932,-7.69415 4.88268,-2.37651 7.73172,-4.02887 8.93068,-5.17952 0.96835,-0.92933 1.85343,-1.68969 1.96683,-1.68969 0.60169,0 0.0663,3.01664 -0.86823,4.89198 -1.17765,2.36324 -3.15456,4.16708 -7.07645,6.45696 -3.09625,1.80781 -5.09937,3.44357 -5.09937,4.16418 0,1.25806 8.19348,-1.4325 11.66512,-3.83058 2.46681,-1.70398 6.55213,-6.04744 8.3893,-8.91939 1.30125,-2.03419 4.13922,-7.69872 6.57066,-13.11491 l 0.6506,-1.44924 0.0227,2.07035 c 0.0125,1.13869 -0.42668,4.05139 -0.97595,6.47265 -1.9499,8.5954 -4.82305,14.06586 -10.19264,19.40674 -4.26443,4.24163 -8.19115,6.65023 -16.58938,10.17568 -3.32724,1.39672 -7.40299,3.26547 -9.05723,4.15276 -3.16831,1.69941 -8.04384,5.8911 -10.01589,8.61107 -0.66002,0.91034 -1.17083,1.32988 -1.17083,0.96162 z m -21.11759,-1.80777 c -0.79708,-1.04025 -2.49644,-2.77515 -3.77635,-3.85533 -4.04074,-3.41019 -6.24193,-4.58444 -17.54827,-9.36136 -8.92699,-3.77165 -15.49999,-9.13234 -19.21927,-15.67455 -2.9989,-5.27506 -5.901,-15.20301 -5.8055,-19.86037 l 0.0265,-1.29149 0.67959,1.44924 c 5.44188,11.60508 7.3131,14.67488 11.52606,18.90899 3.76925,3.78817 8.62537,6.29516 13.55353,6.99705 1.92631,0.27436 1.98334,0.25366 1.48774,-0.53993 -0.28345,-0.45388 -2.5802,-2.20105 -5.10389,-3.88261 -4.86777,-3.24343 -6.96088,-5.47526 -7.69628,-8.20632 -0.80199,-2.97838 -0.20068,-3.15952 2.62465,-0.79068 1.39919,1.17313 4.1278,2.86748 6.06358,3.76523 11.21984,5.20338 13.82125,6.97207 17.42153,11.84488 2.96468,4.01255 4.84188,8.1219 6.45865,14.13856 0.5826,2.16812 1.26518,8.29884 0.92028,8.26573 -0.0898,-0.009 -0.81544,-0.86679 -1.61253,-1.90704 z m 12.84234,0.86684 c -0.003,-0.23913 0.15957,-0.61179 0.36213,-0.82814 0.20256,-0.21636 0.78512,-1.55411 1.29458,-2.97278 0.76165,-2.12094 0.89417,-3.19146 0.74557,-6.02282 -0.18952,-3.61076 -0.60366,-4.71495 -4.28048,-11.41284 -1.83925,-3.35046 -1.98193,-6.58145 -0.43268,-9.79799 0.85957,-1.78462 1.0017,-1.91794 1.02985,-0.96599 0.0485,1.6412 1.39015,4.49427 3.77589,8.02979 2.48242,3.67878 3.18649,5.2351 3.75183,8.29329 0.55545,3.00475 -0.0655,6.23442 -1.90377,9.9012 -1.3916,2.77587 -4.33006,6.68415 -4.34292,5.77628 z m 8.55129,-20.63667 c -0.38684,-1.22718 -1.44875,-3.32342 -2.35981,-4.65829 l -1.65647,-2.42705 0.93846,-0.61988 c 4.27591,-2.82435 6.41334,-6.40031 7.72602,-12.92576 0.43565,-2.16562 1.08601,-4.50588 1.44525,-5.20057 0.89215,-1.72524 2.60831,-2.99248 4.05258,-2.99248 h 1.20085 l -1.59268,-2.17386 c -0.88457,-1.20737 -2.2897,-2.51979 -3.16045,-2.95192 -1.37338,-0.68158 -1.78096,-0.71432 -3.28712,-0.26407 -1.6399,0.49022 -3.07407,1.73436 -6.82604,5.92153 -2.63538,2.94106 -4.35513,2.63358 -8.76493,-1.5671 -2.67413,-2.54732 -4.12084,-3.51374 -8.54512,-5.70822 -10.23162,-5.07498 -16.16018,-9.6812 -18.49758,-14.37175 -0.89589,-1.7978 -1.05319,-1.93789 -1.26959,-1.13064 -0.13584,0.50678 -0.24954,2.14939 -0.25265,3.65025 -0.007,3.30193 1.47202,6.62064 4.40283,9.88041 1.03363,1.14964 1.70883,2.09025 1.50047,2.09025 -0.20837,0 -1.57033,-0.82918 -3.02658,-1.84261 -1.45625,-1.01344 -2.71277,-1.77758 -2.79226,-1.69808 -0.3657,0.36569 0.93691,3.88758 2.02022,5.46212 1.29983,1.88924 2.59142,2.92944 5.90883,4.75879 1.16906,0.64466 1.83267,1.17549 1.4747,1.17961 -0.85678,0.01 -4.58956,-1.24027 -5.24964,-1.75816 -0.7094,-0.55658 -0.67503,0.26013 0.0717,1.70419 1.48899,2.8794 6.2809,5.85846 9.42352,5.85846 0.41414,0 0.75299,0.18633 0.75299,0.41407 0,0.22774 -1.05731,0.41407 -2.34957,0.41407 h -2.34956 l 1.00384,1.0898 c 1.37873,1.4968 3.96865,2.61685 6.07619,2.62774 1.72488,0.009 2.36709,0.63018 1.1387,1.10156 -0.34161,0.13109 -0.62111,0.36731 -0.62111,0.52493 0,0.47006 2.52838,1.2354 5.05286,1.5295 l 2.36141,0.2751 -0.80529,1.57849 c -1.0529,2.06385 -4.55983,5.54808 -6.66543,6.62228 l -1.66658,0.85022 -2.00784,-1.87809 c -2.80172,-2.62068 -7.65598,-5.70502 -11.46948,-7.28756 -4.08307,-1.69442 -7.81046,-3.56567 -9.30807,-4.67289 l -1.16394,-0.86054 v -16.34208 c 0,-15.92565 -0.0197,-16.32426 -0.77278,-15.64272 -0.64633,0.58491 -1.52502,0.68011 -5.36966,0.58176 l -4.59688,-0.11759 9.30333,-7.42391 9.30333,-7.42391 v -4.07954 c 0,-3.24428 -0.12717,-4.12833 -0.62111,-4.31788 -0.34595,-0.13275 -0.6211,-0.74819 -0.6211,-1.38925 0,-1.3926 0.68346,-1.55066 5.69346,-1.31673 l 3.41608,0.15951 v 1.17393 c 0,0.64566 -0.18633,1.28909 -0.41407,1.42984 -0.42186,0.26073 -0.59433,2.27739 -0.19477,2.27739 0.12062,0 5.51872,-4.28563 11.99578,-9.52362 6.47706,-5.23799 11.92689,-9.52361 12.11073,-9.52361 0.18385,0 5.08058,3.82564 10.88162,8.50143 5.80104,4.67579 16.96156,13.66629 24.80117,19.97889 l 14.25383,11.47746 -4.41295,0.11745 c -3.57324,0.0951 -4.61466,-0.0147 -5.47298,-0.57709 l -1.06003,-0.69456 0.0605,16.23241 c 0.0563,15.11173 0.009,16.28938 -0.68641,17.05768 -0.71378,0.78872 -2.91058,1.92084 -11.10911,5.72508 -2.03334,0.9435 -4.83712,2.52905 -6.23064,3.52344 -3.2352,2.30859 -7.3354,6.68785 -8.96474,9.57488 -0.69801,1.2368 -1.31046,2.24873 -1.361,2.24873 -0.0505,0 -0.40839,-1.00406 -0.79522,-2.23124 z m 25.78121,-41.8052 c 0.24247,-6.79804 0.34839,-12.50967 0.23539,-12.69251 -0.19012,-0.30762 -16.7693,-13.92187 -30.14906,-24.75738 l -5.71974,-4.63209 -7.53051,6.10493 c -4.14178,3.35771 -12.25586,9.92406 -18.03129,14.59188 l -10.50078,8.48695 0.22902,9.73065 c 0.12596,5.35186 0.47204,12.43246 0.76908,15.73467 l 0.54006,6.00402 0.26775,-3.72663 c 0.14727,-2.04965 0.31184,-7.3601 0.36572,-11.801 0.0539,-4.44091 0.21336,-9.39325 0.3544,-11.0052 l 0.25643,-2.93084 5.38292,-4.33271 c 2.9606,-2.38299 10.40174,-8.42421 16.53587,-13.42494 6.13413,-5.00073 11.2959,-9.04863 11.4706,-8.99533 0.17471,0.0533 4.16443,3.22093 8.86606,7.03919 4.70164,3.81826 12.11725,9.83264 16.47915,13.36528 l 7.93072,6.42298 0.27334,10.13983 c 0.15034,5.5769 0.42002,12.28264 0.5993,14.90163 l 0.32596,4.76181 0.30438,-3.31256 c 0.16741,-1.82191 0.50276,-8.87459 0.74523,-15.67263 z m -23.0669,5.4968 c 1.52182,-0.44179 3.39178,-0.17229 4.74523,0.6839 0.84111,0.53209 0.96817,0.46503 1.84225,-0.9723 0.51636,-0.84909 2.14215,-2.80019 3.61286,-4.33577 l 2.67404,-2.79197 -2.03187,0.60545 c -4.50258,1.34168 -8.24602,2.74555 -9.89,3.70899 -1.79812,1.05377 -4.32872,3.60304 -5.20851,5.24695 -0.43353,0.81007 -0.2625,0.75245 1.19638,-0.403 0.93623,-0.74151 2.31306,-1.52552 3.05962,-1.74225 z m 2.80663,5.03487 c 0,-0.50862 0.26736,-0.86265 0.65147,-0.86265 0.3856,0 0.59683,0.28172 0.51759,0.69031 -0.20147,1.03881 -1.16906,1.18145 -1.16906,0.17234 z m -62.52461,-37.14742 c 0.34161,-0.0905 3.09,-0.5921 6.10753,-1.11461 l 5.48644,-0.95001 v 0.89316 c 0,0.83547 -0.26073,0.91041 -4.03719,1.16049 -4.2625,0.28227 -8.60431,0.28857 -7.55678,0.011 z m 84.88441,-0.0506 c -2.75618,-0.12831 -3.26856,-0.2857 -4.55478,-1.39912 l -1.44924,-1.25455 1.32898,0.22653 c 8.11978,1.38408 13.65286,2.37668 13.99162,2.51001 0.46359,0.18246 -4.58061,0.13759 -9.31658,-0.0829 z m -15.4788,-10.40363 -1.08551,-1.13303 3.62386,-0.90119 c 7.96976,-1.98195 16.35582,-3.84895 16.52563,-3.67914 0.0989,0.0988 -1.92512,0.93384 -4.49771,1.85554 -4.94022,1.76997 -10.57088,3.84247 -12.39165,4.56103 -0.94337,0.3723 -1.23437,0.2782 -2.17462,-0.70321 z m -49.94431,-0.63786 c -9.41854,-3.23946 -14.57114,-5.15372 -13.97183,-5.19073 0.17248,-0.0107 2.87429,0.56182 6.00402,1.27215 3.12973,0.71034 6.34258,1.4324 7.13967,1.60457 0.79709,0.17217 2.82309,0.63596 4.50224,1.03065 l 3.053,0.7176 -1.06809,0.99039 c -0.58745,0.54472 -1.21597,0.97643 -1.39672,0.95937 -0.18074,-0.0171 -2.09877,-0.63987 -4.26229,-1.384 z m 4.75269,-11.02922 c -3.61272,-3.63164 -6.40941,-6.60299 -6.21486,-6.60299 0.35756,0 3.70562,2.51263 11.10251,8.33212 l 4.0504,3.18665 -1.18473,0.8436 -1.18474,0.8436 z m 37.95811,5.67761 -0.91093,-0.96964 3.21717,-2.44644 c 1.76945,-1.34553 5.3083,-4.07683 7.86411,-6.06954 2.55582,-1.99272 4.75648,-3.62312 4.89036,-3.62312 0.13387,0 -2.87309,3.16764 -6.68215,7.0392 -3.80905,3.87155 -7.04752,7.03919 -7.19659,7.03919 -0.14907,0 -0.68095,-0.43634 -1.18197,-0.96965 z m -25.09943,-6.40286 c -0.38656,-1.06924 -1.06013,-2.92231 -1.49681,-4.11794 -0.43668,-1.19563 -1.16662,-3.19869 -1.6221,-4.45125 -0.45548,-1.25257 -1.22516,-3.30891 -1.71041,-4.56966 -0.48525,-1.26075 -0.79809,-2.37644 -0.69521,-2.47933 0.20525,-0.20525 0.55285,0.4173 5.33947,9.56312 l 3.26622,6.24076 -1.18916,0.87918 -1.18916,0.87918 z m 18.26046,1.03191 -1.15509,-0.92104 1.52143,-2.89079 c 5.06706,-9.62761 6.51686,-12.2396 6.69483,-12.06162 0.15016,0.15016 -5.48097,16.27009 -5.83701,16.70929 -0.038,0.0469 -0.58886,-0.32927 -1.22416,-0.83584 z m -9.53954,-5.78896 c 0.0683,-0.50251 0.3583,-5.75828 0.64448,-11.67948 0.57598,-11.91693 0.80925,-11.80683 1.56472,0.73855 0.62207,10.3302 0.59853,12.12071 -0.15121,11.49849 -0.42164,-0.34993 -0.82556,-0.36992 -1.38838,-0.0687 -0.68087,0.36439 -0.77609,0.29487 -0.66961,-0.48886 z m 16.7437,-10.85134 c 0,-0.22774 0.18063,-0.69357 0.40139,-1.03517 0.22077,-0.34161 0.40139,-0.43478 0.40139,-0.20704 0,0.22774 -0.18062,0.69357 -0.40139,1.03518 -0.22076,0.3416 -0.40139,0.43477 -0.40139,0.20703 z"
         id="path1517"
         sodipodi:nodetypes="ssscccsssssssssssssssscssssssssssssscsssssssssscsscssssssssscsscsssscsssssssscsssssscssssscssssscsscssscssscccsssscssssssscsscssssssssssscsscsscssscssssscsscsssssscssssssssssscsssssscssssscsssssssssscsssssscccsscsssssssssssscccsscsssssssssssssss" /><path
         style="fill:#c59532"
         d="m -663.31401,-594.87994 c -2.10922,-2.2819 -4.48273,-5.78781 -5.13322,-7.58227 -1.38498,-3.82065 -0.69987,-8.25264 1.95445,-12.64347 l 1.27562,-2.11018 1.39881,2.68363 1.3988,2.68364 -1.24833,2.53572 c -2.1959,4.46051 -2.0055,8.29968 0.67384,13.58711 0.5531,1.09148 0.94419,1.98452 0.86909,1.98452 -0.0751,0 -0.61018,-0.51242 -1.18906,-1.1387 z m 11.24934,0.60968 c 0,-2.00855 1.01106,-7.59446 1.92784,-10.65088 1.82269,-6.07664 4.70625,-11.096 8.52289,-14.83563 3.03428,-2.97306 4.25171,-3.72851 12.39932,-7.69415 4.88268,-2.37651 7.73172,-4.02887 8.93068,-5.17952 0.96835,-0.92933 1.85343,-1.68969 1.96683,-1.68969 0.60169,0 0.0663,3.01664 -0.86823,4.89198 -1.17765,2.36324 -3.15456,4.16708 -7.07645,6.45696 -3.09625,1.80781 -5.09937,3.44357 -5.09937,4.16418 0,1.25806 8.19348,-1.4325 11.66512,-3.83058 2.46681,-1.70398 6.55213,-6.04744 8.3893,-8.91939 1.30125,-2.03419 4.13922,-7.69872 6.57066,-13.11491 l 0.6506,-1.44924 0.0227,2.07035 c 0.0125,1.13869 -0.42668,4.05139 -0.97595,6.47265 -1.9499,8.5954 -4.82305,14.06586 -10.19264,19.40674 -4.26443,4.24163 -8.19115,6.65023 -16.58938,10.17568 -3.32724,1.39672 -7.40299,3.26547 -9.05723,4.15276 -3.16831,1.69941 -8.04384,5.8911 -10.01589,8.61107 -0.66002,0.91034 -1.17083,1.32988 -1.17083,0.96162 z m -21.11759,-1.80777 c -0.79708,-1.04025 -2.49644,-2.77515 -3.77635,-3.85533 -4.04074,-3.41019 -6.24193,-4.58444 -17.54827,-9.36136 -8.92699,-3.77165 -15.49999,-9.13234 -19.21927,-15.67455 -2.9989,-5.27506 -5.901,-15.20301 -5.8055,-19.86037 l 0.0265,-1.29149 0.67959,1.44924 c 5.44188,11.60508 7.3131,14.67488 11.52606,18.90899 3.76925,3.78817 8.62537,6.29516 13.55353,6.99705 1.92631,0.27436 1.98334,0.25366 1.48774,-0.53993 -0.28345,-0.45388 -2.5802,-2.20105 -5.10389,-3.88261 -4.86777,-3.24343 -6.96088,-5.47526 -7.69628,-8.20632 -0.80199,-2.97838 -0.20068,-3.15952 2.62465,-0.79068 1.39919,1.17313 4.1278,2.86748 6.06358,3.76523 11.21984,5.20338 13.82125,6.97207 17.42153,11.84488 2.96468,4.01255 4.84188,8.1219 6.45865,14.13856 0.5826,2.16812 1.26518,8.29884 0.92028,8.26573 -0.0898,-0.009 -0.81544,-0.86679 -1.61253,-1.90704 z m 12.84234,0.86684 c -0.003,-0.23913 0.15957,-0.61179 0.36213,-0.82814 0.20256,-0.21636 0.78512,-1.55411 1.29458,-2.97278 0.76165,-2.12094 0.89417,-3.19146 0.74557,-6.02282 -0.18952,-3.61076 -0.60366,-4.71495 -4.28048,-11.41284 -1.83925,-3.35046 -1.98193,-6.58145 -0.43268,-9.79799 0.85957,-1.78462 1.0017,-1.91794 1.02985,-0.96599 0.0485,1.6412 1.39015,4.49427 3.77589,8.02979 2.48242,3.67878 3.18649,5.2351 3.75183,8.29329 0.55545,3.00475 -0.0655,6.23442 -1.90377,9.9012 -1.3916,2.77587 -4.33006,6.68415 -4.34292,5.77628 z m 9.10306,-19.33708 c -5.1e-4,-0.81369 -2.35194,-5.57546 -3.49011,-7.06768 l -1.0298,-1.35013 1.66587,-1.01874 c 3.61489,-2.21063 5.7489,-5.8745 6.97032,-11.96733 0.46764,-2.3327 1.16201,-4.89826 1.54305,-5.70125 0.75951,-1.60055 2.71631,-3.01451 4.17517,-3.01694 0.51241,-8.5e-4 0.93165,-0.087 0.93165,-0.19152 0,-0.7114 -3.60516,-4.7996 -4.59354,-5.209 -2.73047,-1.131 -5.81096,0.35031 -8.92546,4.29194 -1.04846,1.32692 -2.52154,2.70596 -3.2735,3.06455 -1.91139,0.91147 -3.31664,0.24703 -6.96272,-3.29218 -2.36071,-2.29151 -3.84118,-3.28418 -7.69931,-5.16248 -10.09384,-4.91409 -16.4931,-9.79591 -18.92202,-14.43508 -1.42436,-2.72049 -1.78151,-2.31131 -1.78996,2.05076 -0.007,3.76662 0.91155,6.11507 3.72436,9.51896 0.90872,1.09968 1.65221,2.09372 1.65221,2.20898 0,0.24209 -1.68836,-0.79937 -3.59549,-2.21785 -1.75748,-1.30718 -1.92967,-1.24735 -1.5919,0.55312 0.64957,3.46252 2.73392,6.00907 7.02635,8.58447 1.35303,0.8118 2.36045,1.47599 2.23869,1.47599 -0.23129,0 -4.14067,-1.34553 -5.46194,-1.87989 -0.71691,-0.28994 -0.71183,-0.20797 0.0837,1.35143 1.8291,3.58533 4.39198,5.50675 8.39432,6.29331 l 1.80876,0.35547 -2.20423,0.0454 c -1.84141,0.0379 -2.18183,0.16165 -2.06818,0.75183 0.23734,1.23239 3.28347,3.00202 6.05457,3.51736 2.37602,0.44187 2.52683,0.52959 1.68502,0.98011 -0.91624,0.49036 -0.91211,0.50126 0.45921,1.21039 0.76108,0.39357 2.47155,0.81422 3.80106,0.93477 1.3295,0.12056 2.41728,0.39266 2.41728,0.60467 0,1.3795 -4.17676,5.88781 -7.16133,7.7298 l -1.57138,0.9698 -2.36229,-2.23508 c -3.70161,-3.50229 -6.32494,-5.08108 -13.54219,-8.15006 -2.27738,-0.96841 -5.02577,-2.40408 -6.10753,-3.19037 l -1.96684,-1.42962 v -16.15426 -16.15426 l -0.98544,0.64568 c -0.76652,0.50225 -1.93361,0.61935 -5.25345,0.52714 l -4.26802,-0.11855 9.18712,-7.35548 9.18713,-7.35547 v -4.34201 c 0,-3.58352 -0.1085,-4.34201 -0.62111,-4.34201 -0.41407,0 -0.6211,-0.41407 -0.6211,-1.24221 v -1.24222 h 4.55477 4.55477 v 1.24222 c 0,0.68321 -0.18633,1.24221 -0.41407,1.24221 -0.22774,0 -0.41407,0.55899 -0.41407,1.24221 0,0.68321 0.13975,1.24176 0.31056,1.2412 0.1708,-5.5e-4 5.06201,-3.84202 10.86934,-8.5366 5.80734,-4.69458 11.15648,-8.99585 11.88699,-9.55839 l 1.32821,-1.02279 9.43762,7.58174 c 5.1907,4.16995 11.48728,9.26458 13.9924,11.3214 2.50513,2.05682 9.44842,7.65164 15.42954,12.43293 l 10.87476,8.69327 -4.40797,0.11808 c -3.50356,0.0938 -4.5521,-0.0124 -5.11039,-0.51759 -0.38632,-0.34962 -0.82748,-0.63567 -0.98035,-0.63567 -0.15288,0 -0.27795,7.36241 -0.27795,16.36092 v 16.36092 l -2.24257,1.43455 c -1.23341,0.789 -3.70231,2.01335 -5.48643,2.72076 -9.27078,3.67592 -15.44286,8.53426 -19.56333,15.39922 -0.98554,1.64197 -1.27832,1.87896 -1.27885,1.03518 z m 25.22942,-40.0613 c 0.23789,-6.26281 0.43494,-12.41984 0.4379,-13.68228 l 0.005,-2.29535 -8.13832,-6.60716 c -4.47608,-3.63394 -12.53492,-10.18548 -17.90854,-14.55897 -5.37363,-4.37349 -9.87503,-7.96037 -10.00312,-7.97085 -0.12809,-0.0105 -6.46336,5.04596 -14.07839,11.23653 -7.61502,6.19056 -15.66223,12.73189 -17.88268,14.53627 l -4.03718,3.2807 0.009,7.09889 c 0.008,6.80465 0.4789,16.31446 1.09644,22.15091 0.26783,2.53127 0.31607,2.63628 0.59891,1.30377 0.16919,-0.79709 0.40078,-7.41186 0.51463,-14.6995 l 0.20701,-13.25025 1.58222,-1.3301 c 5.10001,-4.28738 31.75383,-25.79138 31.96723,-25.79081 0.1409,3.8e-4 2.50642,1.81712 5.25671,4.03719 11.06298,8.93019 26.91236,21.79159 27.3787,22.21718 0.34267,0.31272 0.6304,4.16132 0.93157,12.46051 0.23967,6.60442 0.56665,13.40553 0.72662,15.11357 l 0.29086,3.10552 0.3065,-2.48442 c 0.16858,-1.36643 0.50115,-7.60854 0.73904,-13.87135 z m -24.11762,2.94818 c 1.29854,-0.66584 4.10474,-0.57123 5.57269,0.18788 0.69307,0.3584 1.31229,0.59131 1.37603,0.51758 0.0637,-0.0737 0.43459,-0.76035 0.82411,-1.52584 0.38953,-0.76549 1.92571,-2.59144 3.41376,-4.05767 1.48804,-1.46622 2.61459,-2.75681 2.50343,-2.86796 -0.30492,-0.30493 -8.092,2.26571 -10.45375,3.45096 -3.16339,1.58754 -4.33807,2.54507 -5.63919,4.59671 -1.56838,2.47309 -1.51118,3.01078 0.15275,1.43584 0.74015,-0.70056 1.75273,-1.48244 2.25017,-1.7375 z m 4.06441,4.91903 c -0.16528,-0.26742 -0.11418,-0.67256 0.11356,-0.9003 0.27605,-0.27604 0.51424,-0.25199 0.71458,0.0722 0.16527,0.26743 0.11417,0.67256 -0.11357,0.9003 -0.27605,0.27605 -0.51424,0.25199 -0.71457,-0.0722 z m -62.73165,-37.52698 c 0.34161,-0.0905 3.09,-0.5921 6.10753,-1.11461 l 5.48644,-0.95001 v 0.89316 c 0,0.83547 -0.26073,0.91041 -4.03719,1.16049 -4.2625,0.28227 -8.60431,0.28857 -7.55678,0.011 z m 84.88441,-0.0506 c -2.75618,-0.12831 -3.26856,-0.2857 -4.55478,-1.39912 l -1.44924,-1.25455 1.32898,0.22653 c 8.11978,1.38408 13.65286,2.37668 13.99162,2.51001 0.46359,0.18246 -4.58061,0.13759 -9.31658,-0.0829 z m -15.4788,-10.40363 -1.08551,-1.13303 3.62386,-0.90119 c 7.96976,-1.98195 16.35582,-3.84895 16.52563,-3.67914 0.0989,0.0988 -1.92512,0.93384 -4.49771,1.85554 -4.94022,1.76997 -10.57088,3.84247 -12.39165,4.56103 -0.94337,0.3723 -1.23437,0.2782 -2.17462,-0.70321 z m -49.94431,-0.63786 c -9.41854,-3.23946 -14.57114,-5.15372 -13.97183,-5.19073 0.17248,-0.0107 2.87429,0.56182 6.00402,1.27215 3.12973,0.71034 6.34258,1.4324 7.13967,1.60457 0.79709,0.17217 2.82309,0.63596 4.50224,1.03065 l 3.053,0.7176 -1.06809,0.99039 c -0.58745,0.54472 -1.21597,0.97643 -1.39672,0.95937 -0.18074,-0.0171 -2.09877,-0.63987 -4.26229,-1.384 z m 4.75269,-11.02922 c -3.61272,-3.63164 -6.40941,-6.60299 -6.21486,-6.60299 0.35756,0 3.70562,2.51263 11.10251,8.33212 l 4.0504,3.18665 -1.18473,0.8436 -1.18474,0.8436 z m 37.95811,5.67761 -0.91093,-0.96964 3.21717,-2.44644 c 1.76945,-1.34553 5.3083,-4.07683 7.86411,-6.06954 2.55582,-1.99272 4.75648,-3.62312 4.89036,-3.62312 0.13387,0 -2.87309,3.16764 -6.68215,7.0392 -3.80905,3.87155 -7.04752,7.03919 -7.19659,7.03919 -0.14907,0 -0.68095,-0.43634 -1.18197,-0.96965 z m -25.09943,-6.40286 c -0.38656,-1.06924 -1.06013,-2.92231 -1.49681,-4.11794 -0.43668,-1.19563 -1.16662,-3.19869 -1.6221,-4.45125 -0.45548,-1.25257 -1.22516,-3.30891 -1.71041,-4.56966 -0.48525,-1.26075 -0.79809,-2.37644 -0.69521,-2.47933 0.20525,-0.20525 0.55285,0.4173 5.33947,9.56312 l 3.26622,6.24076 -1.18916,0.87918 -1.18916,0.87918 z m 18.26046,1.03191 -1.15509,-0.92104 1.52143,-2.89079 c 5.06706,-9.62761 6.51686,-12.2396 6.69483,-12.06162 0.15016,0.15016 -5.48097,16.27009 -5.83701,16.70929 -0.038,0.0469 -0.58886,-0.32927 -1.22416,-0.83584 z m -9.53954,-5.78896 c 0.0683,-0.50251 0.3583,-5.75828 0.64448,-11.67948 0.57598,-11.91693 0.80925,-11.80683 1.56472,0.73855 0.62207,10.3302 0.59853,12.12071 -0.15121,11.49849 -0.42164,-0.34993 -0.82556,-0.36992 -1.38838,-0.0687 -0.68087,0.36439 -0.77609,0.29487 -0.66961,-0.48886 z m 16.7437,-10.85134 c 0,-0.22774 0.18063,-0.69357 0.40139,-1.03517 0.22077,-0.34161 0.40139,-0.43478 0.40139,-0.20704 0,0.22774 -0.18062,0.69357 -0.40139,1.03518 -0.22076,0.3416 -0.40139,0.43477 -0.40139,0.20703 z"
         id="path1516"
         sodipodi:nodetypes="ssscccsssssssssssssssscssssssssssssscsssssssssscsscssssssssscsscssssssssssscssssssssscsssssssscssscccsscccssscccsssssscssscsssscssssscccsssssccssscsssssscsccssssssssssssssssscsssssscssssscsssssssssscsssssscccsscsssssssssssscccsscsssssssssssssss" /><path
         style="fill:#576a8e"
         d="m -663.86021,-595.50104 c -2.20751,-2.57558 -4.16246,-5.66863 -4.77539,-7.5554 -1.17325,-3.61166 -0.34977,-8.06628 2.24905,-12.16618 l 1.14923,-1.81303 1.43792,2.59435 1.43791,2.59436 -1.30095,2.44084 c -2.24265,4.20764 -2.04107,8.33346 0.6684,13.68034 0.5531,1.09148 0.92385,1.98452 0.82389,1.98452 -0.1,0 -0.86049,-0.79191 -1.69006,-1.7598 z m 12.62335,-19.04723 c -5.1e-4,-0.81369 -2.35194,-5.57546 -3.49011,-7.06768 l -1.0298,-1.35013 1.66587,-1.01874 c 3.61489,-2.21063 5.7489,-5.8745 6.97032,-11.96733 0.46764,-2.3327 1.16201,-4.89826 1.54305,-5.70125 0.75951,-1.60055 2.71631,-3.01451 4.17517,-3.01694 0.51241,-8.5e-4 0.93165,-0.087 0.93165,-0.19152 0,-0.7114 -3.60516,-4.7996 -4.59354,-5.209 -2.73047,-1.131 -5.81096,0.35031 -8.92546,4.29194 -1.04846,1.32692 -2.52154,2.70596 -3.2735,3.06455 -1.91139,0.91147 -3.31664,0.24703 -6.96272,-3.29218 -2.36071,-2.29151 -3.84118,-3.28418 -7.69931,-5.16248 -10.09384,-4.91409 -16.4931,-9.79591 -18.92202,-14.43508 -1.42436,-2.72049 -1.78151,-2.31131 -1.78996,2.05076 -0.007,3.76662 0.91155,6.11507 3.72436,9.51896 0.90872,1.09968 1.65221,2.09372 1.65221,2.20898 0,0.24209 -1.68836,-0.79937 -3.59549,-2.21785 -1.75748,-1.30718 -1.92967,-1.24735 -1.5919,0.55312 0.64957,3.46252 2.73392,6.00907 7.02635,8.58447 1.35303,0.8118 2.36045,1.47599 2.23869,1.47599 -0.23129,0 -4.14067,-1.34553 -5.46194,-1.87989 -0.71691,-0.28994 -0.71183,-0.20797 0.0837,1.35143 1.8291,3.58533 4.39198,5.50675 8.39432,6.29331 l 1.80876,0.35547 -2.20423,0.0454 c -1.84141,0.0379 -2.18183,0.16165 -2.06818,0.75183 0.23734,1.23239 3.28347,3.00202 6.05457,3.51736 2.37602,0.44187 2.52683,0.52959 1.68502,0.98011 -0.91624,0.49036 -0.91211,0.50126 0.45921,1.21039 0.76108,0.39357 2.47155,0.81422 3.80106,0.93477 1.3295,0.12056 2.41728,0.39266 2.41728,0.60467 0,1.3795 -4.17676,5.88781 -7.16133,7.7298 l -1.57138,0.9698 -2.36229,-2.23508 c -3.70161,-3.50229 -6.32494,-5.08108 -13.54219,-8.15006 -2.27738,-0.96841 -5.02577,-2.40408 -6.10753,-3.19037 l -1.96684,-1.42962 v -16.15426 -16.15426 l -0.98544,0.64568 c -0.76652,0.50225 -1.93361,0.61935 -5.25345,0.52714 l -4.26802,-0.11855 9.18712,-7.35548 9.18713,-7.35547 v -4.34201 c 0,-3.58352 -0.1085,-4.34201 -0.62111,-4.34201 -0.41407,0 -0.6211,-0.41407 -0.6211,-1.24221 v -1.24222 h 4.55477 4.55477 v 1.24222 c 0,0.68321 -0.18633,1.24221 -0.41407,1.24221 -0.22774,0 -0.41407,0.55899 -0.41407,1.24221 0,0.68321 0.13975,1.24176 0.31056,1.2412 0.1708,-5.5e-4 5.06201,-3.84202 10.86934,-8.5366 5.80734,-4.69458 11.15648,-8.99585 11.88699,-9.55839 l 1.32821,-1.02279 9.43762,7.58174 c 5.1907,4.16995 11.48728,9.26458 13.9924,11.3214 2.50513,2.05682 9.44842,7.65164 15.42954,12.43293 l 10.87476,8.69327 -4.40797,0.11808 c -3.50356,0.0938 -4.5521,-0.0124 -5.11039,-0.51759 -0.38632,-0.34962 -0.82748,-0.63567 -0.98035,-0.63567 -0.15288,0 -0.27795,7.36241 -0.27795,16.36092 v 16.36092 l -2.24257,1.43455 c -1.23341,0.789 -3.70231,2.01335 -5.48643,2.72076 -9.27078,3.67592 -15.44286,8.53426 -19.56333,15.39922 -0.98554,1.64197 -1.27832,1.87896 -1.27885,1.03518 z m 25.22942,-40.0613 c 0.23789,-6.26281 0.43494,-12.41984 0.4379,-13.68228 l 0.005,-2.29535 -8.13832,-6.60716 c -4.47608,-3.63394 -12.53492,-10.18548 -17.90854,-14.55897 -5.37363,-4.37349 -9.87503,-7.96037 -10.00312,-7.97085 -0.12809,-0.0105 -6.46336,5.04596 -14.07839,11.23653 -7.61502,6.19056 -15.66223,12.73189 -17.88268,14.53627 l -4.03718,3.2807 0.009,7.09889 c 0.008,6.80465 0.4789,16.31446 1.09644,22.15091 0.26783,2.53127 0.31607,2.63628 0.59891,1.30377 0.16919,-0.79709 0.40078,-7.41186 0.51463,-14.6995 l 0.20701,-13.25025 1.58222,-1.3301 c 5.10001,-4.28738 31.75383,-25.79138 31.96723,-25.79081 0.1409,3.8e-4 2.50642,1.81712 5.25671,4.03719 11.06298,8.93019 26.91236,21.79159 27.3787,22.21718 0.34267,0.31272 0.6304,4.16132 0.93157,12.46051 0.23967,6.60442 0.56665,13.40553 0.72662,15.11357 l 0.29086,3.10552 0.3065,-2.48442 c 0.16858,-1.36643 0.50115,-7.60854 0.73904,-13.87135 z m -32.88939,-1.79437 v -11.66292 l 4.86532,-0.11665 4.86533,-0.11666 v -2.67832 -2.67831 h -4.71352 c -5.56852,0 -5.20983,0.42115 -5.21851,-6.1273 l -0.006,-4.26398 -2.58794,0.12328 -2.58794,0.12327 -0.11626,5.07237 -0.11626,5.07236 h -4.74906 -4.74907 v 2.69145 2.69146 h 4.76181 4.76181 v 9.40896 9.40895 l 2.56475,2.58776 c 1.41062,1.42327 2.66836,2.48413 2.79498,2.35748 0.12662,-0.12666 0.23022,-5.4786 0.23022,-11.8932 z m 8.77177,4.74255 c 1.29854,-0.66584 4.10474,-0.57123 5.57269,0.18788 0.69307,0.3584 1.31229,0.59131 1.37603,0.51758 0.0637,-0.0737 0.43459,-0.76035 0.82411,-1.52584 0.38953,-0.76549 1.92571,-2.59144 3.41376,-4.05767 1.48804,-1.46622 2.61459,-2.75681 2.50343,-2.86796 -0.30492,-0.30493 -8.092,2.26571 -10.45375,3.45096 -3.16339,1.58754 -4.33807,2.54507 -5.63919,4.59671 -1.56838,2.47309 -1.51118,3.01078 0.15275,1.43584 0.74015,-0.70056 1.75273,-1.48244 2.25017,-1.7375 z m 4.06441,4.91903 c -0.16528,-0.26742 -0.11418,-0.67256 0.11356,-0.9003 0.27605,-0.27604 0.51424,-0.25199 0.71458,0.0722 0.16527,0.26743 0.11417,0.67256 -0.11357,0.9003 -0.27605,0.27605 -0.51424,0.25199 -0.71457,-0.0722 z"
         id="path1515"
         sodipodi:nodetypes="ssscccsssssscssssssssssscssssssssscsssssssscssscccsscccssscccsssssscssscsssscssssscccsssssccssscsssssscsccccccccsccccccccccccccssccsssssssssssssss" /><path
         style="fill:#c22229"
         d="m -663.86021,-595.50104 c -2.20751,-2.57558 -4.16246,-5.66863 -4.77539,-7.5554 -1.17325,-3.61166 -0.34977,-8.06628 2.24905,-12.16618 l 1.14923,-1.81303 1.43792,2.59435 1.43791,2.59436 -1.30095,2.44084 c -2.24265,4.20764 -2.04107,8.33346 0.6684,13.68034 0.5531,1.09148 0.92385,1.98452 0.82389,1.98452 -0.1,0 -0.86049,-0.79191 -1.69006,-1.7598 z m 12.64803,-19.26804 c -0.0291,-1.13168 -1.79291,-4.71547 -3.28289,-6.67051 l -1.0707,-1.40488 1.01614,-0.66547 c 4.60414,-3.01525 6.22186,-5.95293 8.07526,-14.66413 0.84203,-3.95761 2.34166,-5.95187 4.76734,-6.33975 l 1.57236,-0.25143 -1.81177,-2.38231 c -2.05786,-2.70592 -3.59628,-3.52759 -6.00085,-3.20507 -2.06114,0.27646 -4.03847,1.75076 -6.21564,4.6344 -2.01324,2.66652 -3.93457,3.73546 -5.58578,3.10767 -0.6206,-0.23595 -2.5618,-1.77451 -4.31378,-3.41903 -2.58284,-2.4244 -4.16234,-3.4714 -8.34953,-5.53463 -10.22751,-5.03958 -16.50939,-9.97955 -18.61498,-14.63852 -1.28835,-2.85069 -1.83119,-2.12417 -1.79396,2.40094 0.0255,3.09773 0.19263,3.92126 1.19332,5.87967 0.64002,1.25256 1.931,3.20484 2.86885,4.33841 l 1.70518,2.06102 -2.76252,-1.92095 c -1.51939,-1.05652 -2.85046,-1.83301 -2.95795,-1.72552 -0.40641,0.40641 0.95176,4.4388 2.00882,5.96413 0.60607,0.87457 2.10843,2.28331 3.33857,3.13054 1.23014,0.84723 2.15888,1.61815 2.06388,1.71315 -0.095,0.095 -1.02671,-0.20502 -2.07046,-0.66672 -2.109,-0.93292 -2.25964,-0.72704 -1.10587,1.51137 1.50604,2.92185 4.61179,5.18802 8.03877,5.86563 l 1.72816,0.34171 -2.17387,0.0454 c -1.19562,0.0249 -2.17386,0.21718 -2.17386,0.42717 0,0.21 0.75623,1.02911 1.68051,1.82026 1.59512,1.36537 4.17119,2.33768 6.26666,2.3653 0.84823,0.0112 0.8741,0.0599 0.23071,0.43465 -0.39854,0.23213 -0.72462,0.58161 -0.72462,0.77662 0,0.49476 3.60801,1.67331 5.14612,1.68097 2.2663,0.0113 2.44661,0.46928 1.02798,2.61101 -0.70772,1.06847 -2.06034,2.60991 -3.00581,3.42544 -1.9744,1.70304 -4.82457,3.28049 -4.82457,2.67021 0,-0.65033 -5.32907,-4.89847 -8.1004,-6.45734 -1.38075,-0.77667 -4.44601,-2.25864 -6.8117,-3.29327 -2.36568,-1.03463 -5.19553,-2.455 -6.28854,-3.15639 l -1.9873,-1.27524 v -16.31261 c 0,-16.94201 -0.0242,-17.16854 -1.67295,-15.67642 -0.55514,0.5024 -1.58146,0.61125 -4.88019,0.51759 l -4.17721,-0.1186 9.07963,-7.24623 9.07962,-7.24623 0.0122,-4.45126 c 0.0101,-3.68604 -0.0946,-4.45125 -0.60893,-4.45125 -0.41407,0 -0.6211,-0.41407 -0.6211,-1.24221 v -1.24222 h 4.38069 4.3807 l -0.29445,2.74956 c -0.17269,1.61253 -0.1398,2.65397 0.0795,2.51841 0.20569,-0.12712 5.58723,-4.43646 11.95898,-9.57631 6.37175,-5.13985 11.82259,-9.34761 12.11298,-9.35058 0.29039,-0.003 4.57601,3.26932 9.52361,7.27174 4.9476,4.00243 13.56076,10.94328 19.14036,15.42412 5.5796,4.48084 10.35523,8.33331 10.61251,8.56105 0.25728,0.22774 2.69658,2.18422 5.42065,4.34774 l 4.95287,3.93367 -4.15939,0.11893 c -3.66609,0.10483 -4.29671,0.0174 -5.31714,-0.73702 l -1.15774,-0.85595 v 16.53204 16.53204 l -1.96684,1.2467 c -1.08176,0.68568 -4.20281,2.2234 -6.93567,3.41715 -6.12069,2.67361 -10.98609,5.81852 -13.94344,9.01281 -1.96077,2.11787 -2.81538,3.26614 -5.18296,6.96393 -0.46323,0.72349 -0.49472,0.71284 -0.51759,-0.17507 z m -44.13416,-34.90178 c 0.11245,-6.70172 0.20758,-13.59893 0.2114,-15.32715 l 0.007,-3.1422 3.61328,-2.86182 c 1.9873,-1.57399 6.34137,-5.09779 9.6757,-7.83065 11.08139,-9.08247 18.74274,-15.31427 19.49507,-15.85744 0.65938,-0.47606 1.45371,0.0395 7.01707,4.55478 13.48699,10.94608 25.04102,20.31594 25.8695,20.97912 0.83167,0.66574 0.89061,1.29367 1.38567,14.76369 0.28438,7.73761 0.64943,14.81371 0.81122,15.72466 0.28123,1.58351 0.30706,1.52893 0.58784,-1.24221 0.43213,-4.26502 1.08886,-19.4984 1.09935,-25.50044 l 0.009,-5.21099 -9.81637,-8.03926 c -17.00359,-13.92533 -25.91475,-21.08246 -26.24923,-21.08246 -0.28114,0 -6.43823,4.74602 -6.99771,5.394 -0.11387,0.13188 -2.07036,1.72987 -4.34774,3.5511 -2.27739,1.82122 -6.84251,5.51395 -10.14472,8.20607 -3.30222,2.69211 -8.00563,6.50261 -10.45204,8.46777 l -4.44802,3.57301 0.006,2.69146 c 0.01,4.50031 0.77266,19.78588 1.23988,24.84422 0.44244,4.79008 0.67449,6.07864 1.03054,5.72259 0.1061,-0.1061 0.28492,-5.67614 0.39737,-12.37785 z m 36.65654,-6.59499 v -12.00804 h 4.76181 4.76181 v -2.69146 -2.69145 h -4.76181 -4.76181 v -5.17588 -5.17588 h -2.89849 -2.89849 v 5.17588 5.17588 h -4.76181 -4.76181 v 2.69145 2.69146 h 4.76181 4.76181 v 9.66762 9.66762 l 2.45368,2.34042 c 1.34953,1.28723 2.65385,2.34041 2.89849,2.34041 0.30681,0 0.44481,-3.7255 0.44481,-12.00803 z m 6.04336,6.58106 c 0.43384,-0.47971 1.52037,-1.24557 2.41451,-1.70191 1.91845,-0.97911 4.78278,-0.83615 6.03983,0.30146 0.77076,0.69753 0.82648,0.67323 1.53596,-0.66966 0.4049,-0.76639 2.11941,-2.84021 3.81,-4.60848 2.11268,-2.20974 2.84313,-3.21504 2.33604,-3.21504 -0.99377,0 -9.10844,2.76174 -11.10003,3.77777 -2.20707,1.12597 -4.49032,3.27374 -5.62336,5.28972 -1.02132,1.81719 -0.708,2.25812 0.58705,0.82614 z m 6.37875,2.52852 c 0,-0.22774 0.2795,-0.41407 0.62111,-0.41407 0.3416,0 0.6211,0.18633 0.6211,0.41407 0,0.22774 -0.2795,0.41407 -0.6211,0.41407 -0.34161,0 -0.62111,-0.18633 -0.62111,-0.41407 z"
         id="path1514"
         sodipodi:nodetypes="ssscccsssssscssscsssssssssscssssssssccsssssssssssscssscccssscccsssssssscsscccsssssssscssssssssccsssssscsssssscccccccccccccccccccccsssssssssssssssss" /><path
         style="fill:#05265a"
         d="m -651.21218,-614.76908 c -0.0291,-1.13168 -1.79291,-4.71547 -3.28289,-6.67051 l -1.0707,-1.40488 1.01614,-0.66547 c 4.60414,-3.01525 6.22186,-5.95293 8.07526,-14.66413 0.84203,-3.95761 2.34166,-5.95187 4.76734,-6.33975 l 1.57236,-0.25143 -1.81177,-2.38231 c -2.05786,-2.70592 -3.59628,-3.52759 -6.00085,-3.20507 -2.06114,0.27646 -4.03847,1.75076 -6.21564,4.6344 -2.01324,2.66652 -3.93457,3.73546 -5.58578,3.10767 -0.6206,-0.23595 -2.5618,-1.77451 -4.31378,-3.41903 -2.58284,-2.4244 -4.16234,-3.4714 -8.34953,-5.53463 -10.22751,-5.03958 -16.50939,-9.97955 -18.61498,-14.63852 -1.28835,-2.85069 -1.83119,-2.12417 -1.79396,2.40094 0.0255,3.09773 0.19263,3.92126 1.19332,5.87967 0.64002,1.25256 1.931,3.20484 2.86885,4.33841 l 1.70518,2.06102 -2.76252,-1.92095 c -1.51939,-1.05652 -2.85046,-1.83301 -2.95795,-1.72552 -0.40641,0.40641 0.95176,4.4388 2.00882,5.96413 0.60607,0.87457 2.10843,2.28331 3.33857,3.13054 1.23014,0.84723 2.15888,1.61815 2.06388,1.71315 -0.095,0.095 -1.02671,-0.20502 -2.07046,-0.66672 -2.109,-0.93292 -2.25964,-0.72704 -1.10587,1.51137 1.50604,2.92185 4.61179,5.18802 8.03877,5.86563 l 1.72816,0.34171 -2.17387,0.0454 c -1.19562,0.0249 -2.17386,0.21718 -2.17386,0.42717 0,0.21 0.75623,1.02911 1.68051,1.82026 1.59512,1.36537 4.17119,2.33768 6.26666,2.3653 0.84823,0.0112 0.8741,0.0599 0.23071,0.43465 -0.39854,0.23213 -0.72462,0.58161 -0.72462,0.77662 0,0.49476 3.60801,1.67331 5.14612,1.68097 2.2663,0.0113 2.44661,0.46928 1.02798,2.61101 -0.70772,1.06847 -2.06034,2.60991 -3.00581,3.42544 -1.9744,1.70304 -4.82457,3.28049 -4.82457,2.67021 0,-0.65033 -5.32907,-4.89847 -8.1004,-6.45734 -1.38075,-0.77667 -4.44601,-2.25864 -6.8117,-3.29327 -2.36568,-1.03463 -5.19553,-2.455 -6.28854,-3.15639 l -1.9873,-1.27524 v -16.31261 c 0,-16.94201 -0.0242,-17.16854 -1.67295,-15.67642 -0.55514,0.5024 -1.58146,0.61125 -4.88019,0.51759 l -4.17721,-0.1186 9.07963,-7.24623 9.07962,-7.24623 0.0122,-4.45126 c 0.0101,-3.68604 -0.0946,-4.45125 -0.60893,-4.45125 -0.41407,0 -0.6211,-0.41407 -0.6211,-1.24221 v -1.24222 h 4.38069 4.3807 l -0.29445,2.74956 c -0.17269,1.61253 -0.1398,2.65397 0.0795,2.51841 0.20569,-0.12712 5.58723,-4.43646 11.95898,-9.57631 6.37175,-5.13985 11.82259,-9.34761 12.11298,-9.35058 0.29039,-0.003 4.57601,3.26932 9.52361,7.27174 4.9476,4.00243 13.56076,10.94328 19.14036,15.42412 5.5796,4.48084 10.35523,8.33331 10.61251,8.56105 0.25728,0.22774 2.69658,2.18422 5.42065,4.34774 l 4.95287,3.93367 -4.15939,0.11893 c -3.66609,0.10483 -4.29671,0.0174 -5.31714,-0.73702 l -1.15774,-0.85595 v 16.53204 16.53204 l -1.96684,1.2467 c -1.08176,0.68568 -4.20281,2.2234 -6.93567,3.41715 -6.12069,2.67361 -10.98609,5.81852 -13.94344,9.01281 -1.96077,2.11787 -2.81538,3.26614 -5.18296,6.96393 -0.46323,0.72349 -0.49472,0.71284 -0.51759,-0.17507 z m -44.13416,-34.90178 c 0.11245,-6.70172 0.20758,-13.59893 0.2114,-15.32715 l 0.007,-3.1422 3.61328,-2.86182 c 1.9873,-1.57399 6.34137,-5.09779 9.6757,-7.83065 11.08139,-9.08247 18.74274,-15.31427 19.49507,-15.85744 0.65938,-0.47606 1.45371,0.0395 7.01707,4.55478 13.48699,10.94608 25.04102,20.31594 25.8695,20.97912 0.83167,0.66574 0.89061,1.29367 1.38567,14.76369 0.28438,7.73761 0.64943,14.81371 0.81122,15.72466 0.28123,1.58351 0.30706,1.52893 0.58784,-1.24221 0.43213,-4.26502 1.08886,-19.4984 1.09935,-25.50044 l 0.009,-5.21099 -9.81637,-8.03926 c -17.00359,-13.92533 -25.91475,-21.08246 -26.24923,-21.08246 -0.28114,0 -6.43823,4.74602 -6.99771,5.394 -0.11387,0.13188 -2.07036,1.72987 -4.34774,3.5511 -2.27739,1.82122 -6.84251,5.51395 -10.14472,8.20607 -3.30222,2.69211 -8.00563,6.50261 -10.45204,8.46777 l -4.44802,3.57301 0.006,2.69146 c 0.01,4.50031 0.77266,19.78588 1.23988,24.84422 0.44244,4.79008 0.67449,6.07864 1.03054,5.72259 0.1061,-0.1061 0.28492,-5.67614 0.39737,-12.37785 z m 36.65654,-6.59499 v -12.00804 h 4.76181 4.76181 v -2.69146 -2.69145 h -4.76181 -4.76181 v -5.17588 -5.17588 h -2.89849 -2.89849 v 5.17588 5.17588 h -4.76181 -4.76181 v 2.69145 2.69146 h 4.76181 4.76181 v 9.66762 9.66762 l 2.45368,2.34042 c 1.34953,1.28723 2.65385,2.34041 2.89849,2.34041 0.30681,0 0.44481,-3.7255 0.44481,-12.00803 z m 6.04336,6.58106 c 0.43384,-0.47971 1.52037,-1.24557 2.41451,-1.70191 1.91845,-0.97911 4.78278,-0.83615 6.03983,0.30146 0.77076,0.69753 0.82648,0.67323 1.53596,-0.66966 0.4049,-0.76639 2.11941,-2.84021 3.81,-4.60848 2.11268,-2.20974 2.84313,-3.21504 2.33604,-3.21504 -0.99377,0 -9.10844,2.76174 -11.10003,3.77777 -2.20707,1.12597 -4.49032,3.27374 -5.62336,5.28972 -1.02132,1.81719 -0.708,2.25812 0.58705,0.82614 z m 6.37875,2.52852 c 0,-0.22774 0.2795,-0.41407 0.62111,-0.41407 0.3416,0 0.6211,0.18633 0.6211,0.41407 0,0.22774 -0.2795,0.41407 -0.6211,0.41407 -0.34161,0 -0.62111,-0.18633 -0.62111,-0.41407 z"
         id="path1513"
         sodipodi:nodetypes="sscssscsssssssssscssssssssccsssssssssssscssscccssscccsssssssscsscccsssssssscssssssssccsssssscsssssscccccccccccccccccccccsssssssssssssssss" /></g></g></svg>
