<?xml version="1.0" encoding="UTF-8" standalone="no"?>
<!-- Created with Inkscape (http://www.inkscape.org/) -->

<svg
   width="246.50446mm"
   height="304.65829mm"
   viewBox="0 0 246.50446 304.65829"
   version="1.1"
   id="svg1"
   xml:space="preserve"
   xmlns:inkscape="http://www.inkscape.org/namespaces/inkscape"
   xmlns:sodipodi="http://sodipodi.sourceforge.net/DTD/sodipodi-0.dtd"
   xmlns="http://www.w3.org/2000/svg"
   xmlns:svg="http://www.w3.org/2000/svg"><sodipodi:namedview
     id="namedview1"
     pagecolor="#ffffff"
     bordercolor="#000000"
     borderopacity="0.25"
     inkscape:showpageshadow="2"
     inkscape:pageopacity="0.0"
     inkscape:pagecheckerboard="0"
     inkscape:deskcolor="#d1d1d1"
     inkscape:document-units="mm"><inkscape:page
       x="0"
       y="-5.0295971e-13"
       width="246.50446"
       height="304.65826"
       id="page2"
       margin="0"
       bleed="0" /></sodipodi:namedview><defs
     id="defs1" /><g
     inkscape:label="Layer 1"
     inkscape:groupmode="layer"
     id="layer1"
     transform="translate(764.94923,781.61644)"><g
       id="g21"
       transform="translate(-443.92871,465.27196)"
       inkscape:export-filename="hmpm-logo.svg"
       inkscape:export-xdpi="300"
       inkscape:export-ydpi="300"><path
         style="fill:#c59532;fill-opacity:1;stroke:#e3cfa1;stroke-width:0.5;stroke-dasharray:none;stroke-opacity:1"
         d="m -200.30277,-1192.002 c -0.32613,-0.2284 -0.45316,-0.6702 -0.49592,-1.7246 -0.0507,-1.2505 0.24847,-6.5284 1.28627,-22.6907 0.74308,-11.5725 1.18407,-19.5486 1.32008,-23.876 0.049,-1.5599 0.11589,-3.6745 0.14858,-4.699 l 0.0594,-1.8626 0.36549,2.7093 c 0.52942,3.9245 0.75671,6.3438 1.28463,13.6737 1.28388,17.8259 2.32065,38.2931 1.95131,38.5214 -0.22614,0.1398 -0.9909,-0.2013 -1.85497,-0.8272 -0.42953,-0.3112 -1.0697,-0.4771 -1.53623,-0.3983 -0.24864,0.042 -0.49174,0.1866 -0.87029,0.5176 -0.51624,0.4515 -1.09364,0.7945 -1.3375,0.7945 -0.0681,0 -0.21247,-0.062 -0.32088,-0.1381 z"
         id="path15" /><path
         style="fill:#c59532;fill-opacity:1;stroke:#e3cfa1;stroke-width:0.5;stroke-dasharray:none;stroke-opacity:1"
         d="m -178.38611,-1179.8092 c -0.21392,-0.063 -0.727,-0.3735 -1.17844,-0.7133 -0.8442,-0.6355 -3.04343,-2.4478 -3.2015,-2.6383 -0.0919,-0.1107 1.11484,-2.5138 6.38981,-12.7248 3.58876,-6.9469 9.41054,-17.8246 11.04862,-20.6437 0.18463,-0.3178 0.44798,-0.85 0.58522,-1.1829 0.29726,-0.7208 0.59177,-1.2378 0.91617,-1.6083 0.13091,-0.1494 0.4771,-0.6718 0.76931,-1.1608 0.67169,-1.1239 1.01792,-1.6325 1.07349,-1.5769 0.0518,0.052 -0.24735,0.8936 -3.88487,10.9326 -6.44602,17.7901 -10.92932,29.984 -11.27415,30.664 -0.35132,0.6928 -0.62261,0.8351 -1.24366,0.6524 z"
         id="path14" /><path
         style="fill:#c59532;fill-opacity:1;stroke:#e3cfa1;stroke-width:0.5;stroke-dasharray:none;stroke-opacity:1"
         d="m -217.42104,-1179.9471 c -0.061,-0.1513 -0.19823,-0.3921 -0.30496,-0.535 -0.42432,-0.5682 -0.63823,-1.1377 -5.15828,-13.7341 -4.95563,-13.8103 -7.43657,-20.5586 -8.63345,-23.4834 -0.31166,-0.7615 -0.69775,-1.7085 -0.85798,-2.1043 -0.30685,-0.758 -0.62013,-1.8528 -0.61562,-2.1514 0.002,-0.1638 0.0182,-0.1593 0.21115,0.06 1.25379,1.4251 15.427,27.785 17.99095,33.4604 0.37868,0.8382 1.08572,2.2923 1.5712,3.2314 0.48548,0.9391 0.8827,1.7465 0.8827,1.7943 0,0.048 -0.2286,0.2626 -0.508,0.4776 -0.2794,0.215 -0.508,0.4276 -0.508,0.4724 0,0.2052 -0.49629,0.7958 -0.96544,1.149 -0.28393,0.2137 -1.02078,0.6349 -1.63746,0.9359 -0.61667,0.301 -1.14279,0.5821 -1.16916,0.6248 -0.0888,0.1437 -0.18611,0.079 -0.29765,-0.1976 z"
         id="path13" /><path
         style="fill:#c59532;fill-opacity:1;stroke:#e3cfa1;stroke-width:0.5;stroke-dasharray:none;stroke-opacity:1"
         d="m -233.756,-1169.7841 c -3.8499,-3.5792 -18.14411,-18.1235 -30.51383,-31.0476 l -0.60117,-0.6281 0.55033,0.4237 c 0.30268,0.233 2.96223,2.2796 5.9101,4.548 6.99661,5.3839 13.86217,10.6921 21.86057,16.9016 9.54875,7.4132 9.39015,7.2872 9.33957,7.419 -0.0249,0.065 -5.9e-4,0.1715 0.0539,0.2371 0.0807,0.097 -1e-4,0.1865 -0.43503,0.4805 -0.29376,0.1985 -0.95322,0.7647 -1.46545,1.258 -0.89801,0.865 -1.73576,1.5242 -2.30296,1.8123 -0.55739,0.2832 -0.62058,0.2461 -2.39604,-1.4045 z"
         id="path12" /><path
         style="fill:#c59532;fill-opacity:1;stroke:#e3cfa1;stroke-width:0.5;stroke-dasharray:none;stroke-opacity:1"
         d="m -163.56966,-1168.2996 c -0.87923,-0.598 -4.09784,-3.1305 -4.76468,-3.7491 -0.0374,-0.035 1.71519,-1.4288 3.89466,-3.0981 6.69275,-5.1261 21.59198,-16.5245 27.88102,-21.3299 3.28295,-2.5084 6.29285,-4.8095 6.68866,-5.1135 l 0.71967,-0.5526 -0.50764,0.5463 c -0.27921,0.3004 -4.12704,4.2229 -8.55074,8.7166 -14.56488,14.7953 -18.94365,19.311 -21.5922,22.2673 -1.57609,1.7593 -2.06957,2.1461 -2.87946,2.2571 -0.21097,0.029 -0.40384,0.085 -0.4286,0.1254 -0.069,0.1116 -0.23006,0.087 -0.46069,-0.07 z"
         id="path11" /><path
         style="fill:#c59532;fill-opacity:1;stroke:#e3cfa1;stroke-width:0.5;stroke-dasharray:none;stroke-opacity:1"
         d="m -248.31867,-1156.2673 c -4.8578,-1.2568 -21.32772,-6.9086 -34.07833,-11.6942 -4.70963,-1.7677 -8.35405,-3.2576 -8.24205,-3.3696 0.15241,-0.1524 19.76272,4.15 36.52071,8.0125 8.2349,1.898 11.18108,2.6333 11.41629,2.8491 0.10068,0.092 0.3164,0.1956 0.47938,0.2294 0.16298,0.034 0.32102,0.076 0.35118,0.093 0.0913,0.053 -2.98727,3.1193 -3.43475,3.4208 -0.4827,0.3251 -1.45356,0.7564 -1.7001,0.7552 -0.0931,-4e-4 -0.68368,-0.1339 -1.31233,-0.2966 z"
         id="path10" /><path
         style="fill:#c59532;fill-opacity:1;stroke:#e3cfa1;stroke-width:0.5;stroke-dasharray:none;stroke-opacity:1"
         d="m -147.74737,-1155.5781 c -0.2957,-0.1039 -0.65397,-0.2497 -0.79617,-0.324 -0.39515,-0.2063 -1.71249,-1.2412 -3.19981,-2.5136 -1.77439,-1.5181 -1.9695,-1.6913 -1.90934,-1.695 0.028,0 2.25689,-0.5386 4.953,-1.1929 12.717,-3.0864 18.13118,-4.3733 27.04236,-6.4281 9.48531,-2.1872 17.58308,-3.9527 17.68091,-3.8549 0.1073,0.1073 -3.75165,1.6378 -10.35724,4.1076 -9.28028,3.47 -30.16534,11.1616 -32.18604,11.8536 l -0.69004,0.2363 z"
         id="path9" /><path
         style="fill:#c59532;fill-opacity:1;stroke:#e3cfa1;stroke-width:0.5;stroke-dasharray:none;stroke-opacity:1"
         d="m -297.97567,-1135.1373 c -0.88477,-0.026 -1.53501,-0.056 -1.44497,-0.066 0.14363,-0.016 3.07322,-0.5746 16.04997,-3.0598 6.70987,-1.285 8.79699,-1.6217 10.08068,-1.6262 1.22442,0 1.47542,0.1738 1.4464,1.027 -0.0129,0.3801 -0.35099,3.4125 -0.38432,3.4474 -0.01,0.01 -3.19701,0.059 -7.083,0.1078 -3.88598,0.049 -7.92268,0.1251 -8.97043,0.1685 -1.9944,0.083 -6.94794,0.084 -9.69433,0 z"
         id="path8" /><path
         style="fill:#c59532;fill-opacity:1;stroke:#e3cfa1;stroke-width:0.5;stroke-dasharray:none;stroke-opacity:1"
         d="m -124.12572,-1135.5405 c -0.40299,-0.3137 -1.10588,-0.8562 -1.56196,-1.2054 -2.45863,-1.8827 -5.1297,-4.0747 -5.62165,-4.6134 l -0.21167,-0.2317 0.46567,0.061 c 4.46265,0.5808 35.275026,5.9443 35.108086,6.1113 -0.0179,0.018 -0.98087,0.088 -2.13985,0.1564 -1.46718,0.086 -4.640356,0.137 -10.446906,0.1673 -4.58681,0.024 -9.80651,0.062 -11.59933,0.085 l -3.25967,0.041 z"
         id="path7" /><circle
         style="fill:#000000;fill-opacity:1;stroke:#e3cfa1;stroke-width:0.543124;stroke-dasharray:none;stroke-opacity:1"
         id="path21"
         cx="-164.10281"
         cy="-1057.204"
         r="1.8454939" /><path
         style="fill:#05265a;fill-opacity:1;stroke:#e3cfa1;stroke-width:0.8;stroke-dasharray:none;stroke-opacity:1"
         d="m -175.29371,-986.82235 c -0.12723,-0.33761 -0.58334,-1.66159 -1.01356,-2.94217 -1.64531,-4.89735 -3.05557,-7.60736 -6.85121,-13.16568 -1.04938,-1.5367 -1.90937,-2.8408 -1.91108,-2.8979 -0.002,-0.057 0.69222,-0.5666 1.54206,-1.1322 2.85615,-1.9008 4.46929,-3.2127 6.45752,-5.2514 2.32712,-2.3863 4.09082,-4.8757 5.62966,-7.9462 1.94178,-3.8745 3.27561,-8.0681 4.65692,-14.6415 1.01265,-4.819 2.20739,-9.0744 2.98546,-10.6335 1.45696,-2.9195 4.23629,-5.3766 6.95075,-6.145 0.40709,-0.1152 1.05822,-0.1957 2.00052,-0.2472 1.38026,-0.075 1.8505,-0.1461 1.86888,-0.2811 0.0129,-0.095 -3.27833,-4.5865 -4.01295,-5.4764 -0.93291,-1.1301 -3.05667,-3.1955 -4.07893,-3.9668 -0.60967,-0.4601 -1.31147,-0.8887 -2.032,-1.241 -2.33665,-1.1427 -3.26083,-1.2557 -5.54202,-0.6775 -1.76241,0.4468 -2.85237,0.9157 -4.23698,1.8227 -2.40047,1.5724 -4.95789,4.0447 -10.3788,10.0334 -1.88949,2.0874 -2.98002,3.1265 -3.956,3.7695 -2.84508,1.8743 -5.35578,1.6623 -8.96573,-0.7573 -1.8427,-1.235 -3.42076,-2.5586 -6.66568,-5.5908 -5.62657,-5.2577 -8.38158,-7.1155 -16.76979,-11.3085 -9.53128,-4.7645 -15.86109,-8.3623 -21.89401,-12.4444 -7.13087,-4.825 -12.59202,-9.8295 -15.93434,-14.602 -0.96811,-1.3824 -1.49068,-2.2629 -2.53799,-4.2763 -1.14742,-2.2059 -1.41527,-2.6323 -1.73699,-2.7656 -0.21018,-0.087 -0.26484,-0.077 -0.41478,0.072 -0.49513,0.4952 -0.78362,3.2982 -0.78218,7.5999 9.4e-4,2.8052 0.0205,3.2565 0.18682,4.318 0.79611,5.0797 3.05325,9.9081 6.96593,14.9013 0.3649,0.4657 1.29721,1.5706 2.07181,2.4553 2.30773,2.636 3.59563,4.445 3.1645,4.445 -0.38967,0 -3.1179,-1.6634 -6.38444,-3.8927 -3.14152,-2.1439 -5.42603,-3.5579 -5.74831,-3.5579 -0.20846,0 -0.25806,0.3993 -0.15249,1.2275 0.17154,1.3459 0.94061,3.6221 2.0991,6.2126 1.37975,3.0854 2.7192,5.1166 4.77342,7.2386 2.0459,2.1134 4.12723,3.5887 8.96077,6.3519 3.01979,1.7263 4.24918,2.5646 4.24918,2.8976 0,0.6342 -7.61748,-1.633 -10.45633,-3.1121 -1.58675,-0.8268 -1.65246,-0.8543 -1.78225,-0.7466 -0.3213,0.2666 0.0127,1.6253 0.77186,3.1398 0.51255,1.0226 1.26315,2.2859 1.69924,2.86 0.62955,0.8288 1.83524,2.1199 2.75378,2.9488 4.56957,4.1238 10.622,6.9973 15.31103,7.2692 1.0985,0.064 1.44318,0.1469 1.77869,0.4292 0.1922,0.1618 0.2555,0.28 0.23668,0.4423 -0.0211,0.1819 -0.11044,0.255 -0.49988,0.4092 -0.85528,0.3385 -2.14163,0.4531 -5.68532,0.5064 l -3.28083,0.049 v 0.208 c 0,0.2103 0.24185,0.4922 1.85974,2.1675 1.81183,1.8762 4.47802,3.4808 7.37322,4.4375 2.02261,0.6684 3.21999,0.8803 5.62604,0.9958 1.71254,0.082 2.72447,0.3297 3.19617,0.7815 0.49838,0.4773 0.19487,0.9132 -1.06267,1.526 -0.88964,0.4335 -1.32917,0.8075 -1.32917,1.1312 0,0.7731 3.78553,2.0968 8.09055,2.8288 0.69581,0.1184 2.65124,0.3838 4.34538,0.5899 1.69415,0.2061 3.09656,0.391 3.11648,0.4109 0.0515,0.052 -1.56929,3.2704 -2.09394,4.1587 -1.07064,1.8126 -3.08471,4.2409 -5.62296,6.7795 -1.95517,1.9555 -3.21634,3.0718 -4.95684,4.3877 -1.4151,1.0699 -2.33241,1.6403 -3.94891,2.4553 -0.69195,0.3489 -1.54374,0.8039 -1.89287,1.0111 l -0.63478,0.3767 -0.22595,-0.1901 c -0.12427,-0.1046 -1.34357,-1.2393 -2.70955,-2.5216 -3.33645,-3.1322 -5.08274,-4.5797 -8.24094,-6.8311 -5.6133,-4.0016 -11.65681,-7.449 -17.15296,-9.7844 -5.1837,-2.2027 -7.8044,-3.3941 -11.54904,-5.2505 -4.52027,-2.2408 -6.63119,-3.4721 -9.28999,-5.4185 l -1.50065,-1.0986 -0.002,-19.3464 c -0.005,-37.0035 -0.0998,-45.8092 -0.51685,-47.752 -0.21652,-1.0086 -0.46097,-1.1306 -1.09383,-0.5456 -0.44642,0.4126 -1.20734,0.7907 -1.93506,0.9615 -1.1333,0.2661 -2.41753,0.3445 -5.68494,0.347 -3.29362,0 -12.66149,-0.2282 -13.10399,-0.3227 -0.29505,-0.063 0.2946,-0.5403 25.59232,-20.7128 2.60774,-2.0795 6.65586,-5.3091 8.99584,-7.177 l 4.2545,-3.3962 0.0205,-3.9446 c 0.0449,-8.6392 -0.0303,-11.2055 -0.36698,-12.5307 -0.19288,-0.7592 -0.33472,-0.9753 -0.87546,-1.3335 -0.60162,-0.3985 -0.86102,-0.6781 -1.07672,-1.1605 -0.18131,-0.4055 -0.19639,-0.5684 -0.22551,-2.4373 l -0.0312,-2.0027 1.2142,-0.04 c 0.66782,-0.022 1.48091,-0.088 1.80687,-0.1477 0.83165,-0.1515 5.42173,-0.1328 8.80534,0.036 1.49013,0.074 3.78566,0.1352 5.10116,0.1352 l 2.39184,10e-5 -6.4e-4,1.5452 c -9.7e-4,2.3312 -0.24909,3.5062 -0.87878,4.1616 -0.49886,0.5192 -0.56241,0.7536 -0.66549,2.4549 -0.0905,1.493 -0.0881,1.5433 0.0909,1.9453 0.13544,0.3041 0.21161,0.3911 0.28971,0.3309 0.0583,-0.045 0.50601,-0.3816 0.99496,-0.7479 2.30256,-1.7252 9.52318,-7.4665 19.51516,-15.5171 19.9015,-16.0348 29.96547,-23.9708 30.4031,-23.9747 0.0505,-5e-4 0.69825,0.4803 1.43933,1.0683 0.74108,0.588 2.54757,2.0054 4.01442,3.1497 7.4282,5.795 10.24173,8.0487 45.00033,36.0472 15.32044,12.3408 33.05599,26.625 39.41234,31.7427 15.204916,12.2418 15.426096,12.4218 15.348786,12.4935 -0.0366,0.034 -2.46676,0.1224 -5.40046,0.1967 -2.933696,0.074 -5.943596,0.1527 -6.688666,0.1743 -1.69661,0.049 -4.7204,-0.08 -5.74383,-0.2449 -1.30381,-0.2102 -2.084,-0.5416 -3.56893,-1.5159 -0.46535,-0.3053 -0.87282,-0.5282 -0.90549,-0.4953 -0.0796,0.08 -0.22038,3.1932 -0.33388,7.3835 -0.0576,2.1254 -0.10565,14.3728 -0.12646,32.2157 -0.0185,15.8326 -0.053,28.9055 -0.0768,29.0509 -0.0348,0.2129 -0.14218,0.3253 -0.55281,0.5788 -0.28029,0.173 -0.72716,0.5063 -0.99305,0.7407 -0.71666,0.6319 -1.25816,1.0189 -2.33963,1.672 -2.51083,1.5164 -7.84726,4.1515 -17.27566,8.5306 -1.95425,0.9076 -4.24025,1.9821 -5.08,2.3876 -3.80442,1.8373 -9.29232,5.0038 -11.8807,6.8552 -5.96308,4.2651 -13.61308,12.14473 -17.60108,18.12925 -0.62709,0.94102 -0.96752,1.50441 -2.22551,3.683 -0.97355,1.68599 -1.85874,3.09033 -1.94792,3.09033 -0.0372,0 -0.17175,-0.27623 -0.29898,-0.61383 z m 51.25902,-56.41135 c 0.37141,-4.045 0.50594,-5.9739 0.76457,-10.9622 0.63171,-12.1847 1.23488,-27.9745 1.53142,-40.0897 0.11018,-4.5015 0.14704,-11.3472 0.0627,-11.6464 -0.0381,-0.1351 -0.56282,-0.6455 -1.397,-1.3589 -5.6411,-4.8241 -34.16549,-28.2221 -56.20002,-46.0999 -10.75437,-8.7256 -17.91175,-14.514 -18.06482,-14.6096 -0.20145,-0.1258 0.34402,-0.5499 -8.18185,6.3619 -15.54293,12.6005 -35.28126,28.5717 -58.27183,47.1507 l -9.67317,7.817 8e-5,5.3036 c 1.7e-4,11.8018 0.63278,30.2645 1.48431,43.3189 0.1835,2.8132 0.31841,4.4444 0.93107,11.2567 0.30133,3.3507 0.54787,6.1669 0.54787,6.2583 0,0.091 0.0164,0.1499 0.0363,0.1299 0.048,-0.048 0.61201,-7.9452 0.72203,-10.1095 0.26663,-5.2453 0.49983,-13.6872 0.63848,-23.114 0.0994,-6.7548 0.22938,-11.6048 0.5062,-18.8807 0.0709,-1.8627 0.1524,-4.6 0.18118,-6.083 l 0.0523,-2.6964 c 14.42491,-12.991 30.36309,-25.0652 45.4885,-37.3725 14.82234,-12.0634 25.05327,-20.0998 25.5885,-20.0998 0.19538,0 2.03081,1.4158 8.0665,6.2222 3.47857,2.7701 7.31441,5.8724 27.26266,22.0496 8.87095,7.1939 20.33906,16.487 25.48467,20.6512 5.14562,4.1643 9.39983,7.6141 9.45381,7.6664 0.0702,0.068 0.17332,2.9116 0.36255,10.001 0.65405,24.5028 1.06909,35.4235 1.70058,44.7463 0.13721,2.0257 0.31447,4.644 0.39392,5.8186 0.0795,1.1746 0.15393,2.1262 0.16552,2.1146 0.0116,-0.012 0.1749,-1.6965 0.36293,-3.7443 z m -55.50258,-19.1031 c 0.28505,-0.1934 1.07072,-0.7787 1.74594,-1.3008 2.73094,-2.1115 5.45809,-3.6449 7.28133,-4.0943 3.0752,-0.758 6.82739,-0.1701 9.49579,1.4877 1.82579,1.1343 2.08928,1.0342 3.60425,-1.37 1.15554,-1.8338 2.66178,-3.7791 4.97019,-6.419 1.46363,-1.6738 1.8404,-2.0783 5.39965,-5.7968 1.52723,-1.5955 2.77679,-2.9628 2.77679,-3.0383 0,-0.2253 -0.50362,-0.1077 -3.82215,0.892 -10.45066,3.1484 -17.93574,5.9972 -21.28982,8.103 -3.67585,2.3077 -8.57934,7.2917 -10.37968,10.5501 -0.78929,1.4284 -0.74302,1.6381 0.21771,0.9864 z"
         id="path5"
         sodipodi:nodetypes="csscsssssscssssssssssssssscssssssssssssssssscsssccssssssssscssssscssssssccssscssscssssscsccscssssssssssssscssssssssssssssssccssssssssscssssssssscssssssssscssssssssssssss" /><path
         style="fill:#c22229;fill-opacity:1;stroke:#e3cfa1;stroke-width:0.8;stroke-dasharray:none;stroke-opacity:1"
         d="m -199.47369,-944.9136 c -0.39159,-0.38486 -1.15013,-1.17668 -1.68564,-1.75959 -5.61317,-6.10995 -9.30435,-11.73028 -11.0801,-16.87094 -2.41373,-6.9876 -1.76798,-13.7381 2.06683,-21.60606 0.38584,-0.79163 1.02397,-2.01083 1.41806,-2.70933 1.23694,-2.19239 3.59398,-6.17337 3.67005,-6.19864 0.093,-0.0309 0.2822,0.32472 3.19752,6.00977 1.33175,2.59699 2.53609,4.92508 2.6763,5.17353 l 0.25494,0.45172 -1.44851,2.95448 c -2.86721,5.84815 -3.75803,8.2021 -4.27413,11.29414 -0.20983,1.25709 -0.2529,3.80567 -0.0858,5.08 0.58036,4.42733 2.17333,9.42522 4.45448,13.97583 0.63317,1.2631 1.44605,3.15855 1.68065,3.91892 0.37485,1.21487 0.17071,1.28404 -0.8446,0.28617 z"
         id="path4" /><path
         style="fill:#c59532;fill-opacity:1;stroke:#e3cfa1;stroke-width:0.8;stroke-dasharray:none;stroke-opacity:1"
         d="m -196.31442,-944.05009 c 0.0267,-0.0729 0.78109,-1.84456 1.67653,-3.937 2.50801,-5.86065 3.17815,-7.70607 3.96417,-10.91643 0.6951,-2.83897 0.96913,-5.03466 0.97216,-7.78933 0.004,-3.64583 -0.40806,-6.26091 -1.50751,-9.56734 -0.8824,-2.65366 -1.67606,-4.32726 -3.91691,-8.25969 -4.69818,-8.24471 -6.19052,-11.73519 -6.76844,-15.83102 -0.21006,-1.4886 -0.20893,-5.2922 0.002,-6.7156 0.18921,-1.2768 0.62198,-2.9902 1.02964,-4.0764 0.3005,-0.8007 1.93383,-4.4307 2.47645,-5.5038 l 0.25103,-0.4965 0.15175,0.4569 c 0.0835,0.2513 0.22265,0.5155 0.30931,0.5871 0.10803,0.089 0.18163,0.3166 0.23414,0.7229 0.0885,0.6852 1.27307,4.233 2.00703,6.0114 0.65165,1.5789 2.34963,4.9899 3.37171,6.7733 0.45369,0.7917 1.50054,2.4681 2.32633,3.72541 2.24522,3.41845 3.10849,4.89994 4.78558,8.21267 1.5474,3.05654 2.15329,4.65785 2.88323,7.62 1.19986,4.8692 1.38778,9.14459 0.59144,13.45627 -1.20493,6.52399 -4.68049,13.26717 -10.62898,20.62206 -1.33217,1.64714 -4.27128,5.071 -4.21064,4.9051 z"
         id="path3" /><path
         style="fill:#c59532;fill-opacity:1;stroke:#e3cfa1;stroke-width:0.8;stroke-dasharray:none;stroke-opacity:1"
         d="m -218.18875,-943.93869 c -0.30287,-0.33727 -0.59207,-0.77814 -1.17317,-1.78843 -1.74676,-3.03688 -9.26478,-10.15355 -16.3644,-15.49078 -3.6252,-2.7253 -5.36328,-3.7972 -9.54435,-5.88614 -4.81749,-2.40691 -8.83925,-4.22448 -15.55809,-7.03121 -6.92723,-2.89379 -9.70487,-4.14182 -13.99058,-6.28615 -7.87084,-3.93814 -13.38076,-7.61018 -18.796,-12.52642 -1.66962,-1.51578 -5.39775,-5.30664 -6.69471,-6.80737 -6.35856,-7.35761 -10.90987,-15.59641 -14.49935,-26.24671 -2.10295,-6.2397 -4.91613,-19.4818 -5.69025,-26.7849 -0.137,-1.2925 -0.16398,-3.2475 -0.0474,-3.4316 0.23827,-0.3763 2.13493,3.2577 4.95389,9.4915 5.85673,12.9514 10.77932,21.6629 16.19242,28.6556 3.19868,4.1321 6.8664,7.8301 10.51372,10.6004 4.44929,3.3795 9.12201,5.8166 15.12598,7.88927 8.51966,2.94106 12.55049,3.42235 11.2305,1.34094 -0.89409,-1.40984 -4.2327,-3.89751 -9.87584,-7.35871 -5.19725,-3.1877 -7.91584,-5.24 -10.92708,-8.249 -2.45551,-2.4537 -3.88189,-4.3512 -5.07023,-6.7449 -1.08337,-2.1823 -1.57018,-4.0893 -1.57193,-6.1579 -8.9e-4,-1.0579 0.24317,-3.9074 0.33468,-3.9074 0.026,0 1.49503,1.1684 3.26456,2.5963 3.77048,3.0427 4.59286,3.6623 6.78401,5.1112 3.9183,2.5908 7.58779,4.5953 12.98566,7.0935 13.65967,6.3219 16.80768,8.0726 21.42067,11.9129 0.67521,0.5622 1.74201,1.4392 2.37066,1.9491 1.54209,1.2507 4.41283,4.12801 6.07887,6.09275 0.75025,0.88476 1.74975,2.04681 2.22112,2.58233 2.41428,2.74286 3.95023,5.14629 6.38469,9.99067 2.34666,4.66964 4.149,8.8338 5.84498,13.50433 1.08941,3.00009 1.52095,4.59547 2.29018,8.46667 1.5658,7.87993 2.76445,17.73766 2.15681,17.73766 -0.0357,0 -0.19324,-0.14287 -0.35006,-0.3175 z"
         id="path2" /><path
         style="fill:#c59532;fill-opacity:1;stroke:#e3cfa1;stroke-width:0.8;stroke-dasharray:none;stroke-opacity:1"
         d="m -177.21902,-944.49695 c -0.062,-1.66583 0.0686,-5.92973 0.22999,-7.50624 1.24779,-12.19021 6.78897,-27.35085 13.97186,-38.227 4.63295,-7.01508 9.52403,-11.89761 16.23172,-16.20341 3.89421,-2.4997 8.05222,-4.6718 15.09512,-7.8856 9.23051,-4.212 14.69724,-7.2027 19.00767,-10.3984 1.57716,-1.1693 2.67553,-2.1152 4.93678,-4.2514 1.95073,-1.8428 2.13759,-1.9977 2.18797,-1.814 0.0303,0.1105 0.0811,0.8028 0.11282,1.5385 0.0977,2.2637 -0.28618,5.2122 -0.93512,7.1827 -0.95368,2.8957 -2.60139,5.4609 -5.23899,8.1559 -2.77722,2.8378 -5.84962,5.1364 -11.01914,8.2441 -4.39283,2.6407 -6.76551,4.3162 -8.63042,6.09447 -0.99641,0.95008 -1.47378,1.59369 -1.53818,2.0738 -0.0393,0.2929 -0.0152,0.35949 0.18736,0.51885 0.60732,0.47773 3.20304,0.0327 7.53891,-1.29242 5.54531,-1.69479 11.09979,-4.0605 14.04901,-5.9835 4.72624,-3.0817 11.046776,-8.9018 15.597066,-14.3621 3.96136,-4.7536 6.55671,-9.321 14.22987,-25.0422 2.09099,-4.2842 4.14017,-8.5446 4.55374,-9.4676 0.41357,-0.923 0.76795,-1.6302 0.78751,-1.5715 0.0196,0.059 0.24092,-0.291 0.4919,-0.7771 l 0.45634,-0.8838 -0.0491,0.762 c -0.11062,1.7169 -0.64774,7.4885 -0.84732,9.1047 -2.16882,17.5644 -8.08789,32.3889 -17.78696,44.5482 -3.40467,4.26827 -7.928926,8.79865 -12.183726,12.20023 -4.92543,3.93774 -9.97114,7.14628 -15.88536,10.10144 -3.07599,1.53697 -4.94408,2.35376 -16.24564,7.10306 -4.95406,2.08186 -5.76973,2.43627 -8.128,3.53158 -10.93192,5.0774 -19.40169,11.10828 -25.24295,17.97417 -1.06417,1.25083 -1.59591,1.94144 -3.71581,4.826 -0.99245,1.35043 -1.88767,2.55654 -1.98938,2.68023 l -0.18492,0.22491 z"
         id="path1" /><path
         style="fill:#c59532;fill-opacity:1;stroke:#e3cfa1;stroke-width:0.5;stroke-dasharray:none;stroke-opacity:1"
         d="m -193.19677,-1051.2035 c -1.4938,-1.0006 -3.30464,-2.5992 -7.70403,-6.8011 l -2.70933,-2.5877 -0.0551,-0.6773 c -0.0303,-0.3725 -0.0589,-9.5832 -0.0635,-20.4682 l -0.008,-19.7908 h -10.033 -10.033 v -5.6727 -5.6726 h 10.01944 10.01944 l 0.0557,-2.0955 c 0.0306,-1.1526 0.0558,-6.0675 0.0559,-10.922 l 1.8e-4,-8.8265 h 6.096 6.096 v 10.922 10.922 h 10.07534 10.07533 v 5.6726 5.6727 h -10.06495 -10.06495 l -0.047,19.5792 c -0.051,21.2696 -0.12967,25.9833 -0.49111,29.4282 -0.12861,1.2258 -0.24594,1.6597 -0.457,1.69 -0.0937,0.013 -0.43579,-0.1537 -0.762,-0.3723 z"
         id="path19" /></g></g></svg>
