<?xml version="1.0" encoding="UTF-8" standalone="no"?>
<!-- Created with Inkscape (http://www.inkscape.org/) -->

<svg
   width="1164.8745mm"
   height="304.65823mm"
   viewBox="0 0 1164.8745 304.65823"
   version="1.1"
   id="svg1"
   xml:space="preserve"
   xmlns:inkscape="http://www.inkscape.org/namespaces/inkscape"
   xmlns:sodipodi="http://sodipodi.sourceforge.net/DTD/sodipodi-0.dtd"
   xmlns="http://www.w3.org/2000/svg"
   xmlns:svg="http://www.w3.org/2000/svg"><sodipodi:namedview
     id="namedview1"
     pagecolor="#ffffff"
     bordercolor="#000000"
     borderopacity="0.25"
     inkscape:showpageshadow="2"
     inkscape:pageopacity="0.0"
     inkscape:pagecheckerboard="0"
     inkscape:deskcolor="#d1d1d1"
     inkscape:document-units="mm"><inkscape:page
       x="0"
       y="0"
       width="1164.8745"
       height="304.65823"
       id="page2"
       margin="0"
       bleed="0" /></sodipodi:namedview><defs
     id="defs1" /><g
     inkscape:label="Layer 1"
     inkscape:groupmode="layer"
     id="layer1"
     transform="translate(1118.7005,1257.3076)"><g
       inkscape:label="Layer 1"
       id="layer1-8"
       transform="translate(-353.75123,-475.69116)"
       inkscape:export-filename="church logo.svg"
       inkscape:export-xdpi="300"
       inkscape:export-ydpi="300"><g
         id="g21"
         transform="translate(-443.92871,465.27196)"
         inkscape:export-filename="hmpm-logo.svg"
         inkscape:export-xdpi="300"
         inkscape:export-ydpi="300"><path
           style="fill:#c59532;fill-opacity:1;stroke:#e3cfa1;stroke-width:0.5;stroke-dasharray:none;stroke-opacity:1"
           d="m -200.30277,-1192.002 c -0.32613,-0.2284 -0.45316,-0.6702 -0.49592,-1.7246 -0.0507,-1.2505 0.24847,-6.5284 1.28627,-22.6907 0.74308,-11.5725 1.18407,-19.5486 1.32008,-23.876 0.049,-1.5599 0.11589,-3.6745 0.14858,-4.699 l 0.0594,-1.8626 0.36549,2.7093 c 0.52942,3.9245 0.75671,6.3438 1.28463,13.6737 1.28388,17.8259 2.32065,38.2931 1.95131,38.5214 -0.22614,0.1398 -0.9909,-0.2013 -1.85497,-0.8272 -0.42953,-0.3112 -1.0697,-0.4771 -1.53623,-0.3983 -0.24864,0.042 -0.49174,0.1866 -0.87029,0.5176 -0.51624,0.4515 -1.09364,0.7945 -1.3375,0.7945 -0.0681,0 -0.21247,-0.062 -0.32088,-0.1381 z"
           id="path15" /><path
           style="fill:#c59532;fill-opacity:1;stroke:#e3cfa1;stroke-width:0.5;stroke-dasharray:none;stroke-opacity:1"
           d="m -178.38611,-1179.8092 c -0.21392,-0.063 -0.727,-0.3735 -1.17844,-0.7133 -0.8442,-0.6355 -3.04343,-2.4478 -3.2015,-2.6383 -0.0919,-0.1107 1.11484,-2.5138 6.38981,-12.7248 3.58876,-6.9469 9.41054,-17.8246 11.04862,-20.6437 0.18463,-0.3178 0.44798,-0.85 0.58522,-1.1829 0.29726,-0.7208 0.59177,-1.2378 0.91617,-1.6083 0.13091,-0.1494 0.4771,-0.6718 0.76931,-1.1608 0.67169,-1.1239 1.01792,-1.6325 1.07349,-1.5769 0.0518,0.052 -0.24735,0.8936 -3.88487,10.9326 -6.44602,17.7901 -10.92932,29.984 -11.27415,30.664 -0.35132,0.6928 -0.62261,0.8351 -1.24366,0.6524 z"
           id="path14" /><path
           style="fill:#c59532;fill-opacity:1;stroke:#e3cfa1;stroke-width:0.5;stroke-dasharray:none;stroke-opacity:1"
           d="m -217.42104,-1179.9471 c -0.061,-0.1513 -0.19823,-0.3921 -0.30496,-0.535 -0.42432,-0.5682 -0.63823,-1.1377 -5.15828,-13.7341 -4.95563,-13.8103 -7.43657,-20.5586 -8.63345,-23.4834 -0.31166,-0.7615 -0.69775,-1.7085 -0.85798,-2.1043 -0.30685,-0.758 -0.62013,-1.8528 -0.61562,-2.1514 0.002,-0.1638 0.0182,-0.1593 0.21115,0.06 1.25379,1.4251 15.427,27.785 17.99095,33.4604 0.37868,0.8382 1.08572,2.2923 1.5712,3.2314 0.48548,0.9391 0.8827,1.7465 0.8827,1.7943 0,0.048 -0.2286,0.2626 -0.508,0.4776 -0.2794,0.215 -0.508,0.4276 -0.508,0.4724 0,0.2052 -0.49629,0.7958 -0.96544,1.149 -0.28393,0.2137 -1.02078,0.6349 -1.63746,0.9359 -0.61667,0.301 -1.14279,0.5821 -1.16916,0.6248 -0.0888,0.1437 -0.18611,0.079 -0.29765,-0.1976 z"
           id="path13" /><path
           style="fill:#c59532;fill-opacity:1;stroke:#e3cfa1;stroke-width:0.5;stroke-dasharray:none;stroke-opacity:1"
           d="m -233.756,-1169.7841 c -3.8499,-3.5792 -18.14411,-18.1235 -30.51383,-31.0476 l -0.60117,-0.6281 0.55033,0.4237 c 0.30268,0.233 2.96223,2.2796 5.9101,4.548 6.99661,5.3839 13.86217,10.6921 21.86057,16.9016 9.54875,7.4132 9.39015,7.2872 9.33957,7.419 -0.0249,0.065 -5.9e-4,0.1715 0.0539,0.2371 0.0807,0.097 -1e-4,0.1865 -0.43503,0.4805 -0.29376,0.1985 -0.95322,0.7647 -1.46545,1.258 -0.89801,0.865 -1.73576,1.5242 -2.30296,1.8123 -0.55739,0.2832 -0.62058,0.2461 -2.39604,-1.4045 z"
           id="path12" /><path
           style="fill:#c59532;fill-opacity:1;stroke:#e3cfa1;stroke-width:0.5;stroke-dasharray:none;stroke-opacity:1"
           d="m -163.56966,-1168.2996 c -0.87923,-0.598 -4.09784,-3.1305 -4.76468,-3.7491 -0.0374,-0.035 1.71519,-1.4288 3.89466,-3.0981 6.69275,-5.1261 21.59198,-16.5245 27.88102,-21.3299 3.28295,-2.5084 6.29285,-4.8095 6.68866,-5.1135 l 0.71967,-0.5526 -0.50764,0.5463 c -0.27921,0.3004 -4.12704,4.2229 -8.55074,8.7166 -14.56488,14.7953 -18.94365,19.311 -21.5922,22.2673 -1.57609,1.7593 -2.06957,2.1461 -2.87946,2.2571 -0.21097,0.029 -0.40384,0.085 -0.4286,0.1254 -0.069,0.1116 -0.23006,0.087 -0.46069,-0.07 z"
           id="path11" /><path
           style="fill:#c59532;fill-opacity:1;stroke:#e3cfa1;stroke-width:0.5;stroke-dasharray:none;stroke-opacity:1"
           d="m -248.31867,-1156.2673 c -4.8578,-1.2568 -21.32772,-6.9086 -34.07833,-11.6942 -4.70963,-1.7677 -8.35405,-3.2576 -8.24205,-3.3696 0.15241,-0.1524 19.76272,4.15 36.52071,8.0125 8.2349,1.898 11.18108,2.6333 11.41629,2.8491 0.10068,0.092 0.3164,0.1956 0.47938,0.2294 0.16298,0.034 0.32102,0.076 0.35118,0.093 0.0913,0.053 -2.98727,3.1193 -3.43475,3.4208 -0.4827,0.3251 -1.45356,0.7564 -1.7001,0.7552 -0.0931,-4e-4 -0.68368,-0.1339 -1.31233,-0.2966 z"
           id="path10" /><path
           style="fill:#c59532;fill-opacity:1;stroke:#e3cfa1;stroke-width:0.5;stroke-dasharray:none;stroke-opacity:1"
           d="m -147.74737,-1155.5781 c -0.2957,-0.1039 -0.65397,-0.2497 -0.79617,-0.324 -0.39515,-0.2063 -1.71249,-1.2412 -3.19981,-2.5136 -1.77439,-1.5181 -1.9695,-1.6913 -1.90934,-1.695 0.028,0 2.25689,-0.5386 4.953,-1.1929 12.717,-3.0864 18.13118,-4.3733 27.04236,-6.4281 9.48531,-2.1872 17.58308,-3.9527 17.68091,-3.8549 0.1073,0.1073 -3.75165,1.6378 -10.35724,4.1076 -9.28028,3.47 -30.16534,11.1616 -32.18604,11.8536 l -0.69004,0.2363 z"
           id="path9" /><path
           style="fill:#c59532;fill-opacity:1;stroke:#e3cfa1;stroke-width:0.5;stroke-dasharray:none;stroke-opacity:1"
           d="m -297.97567,-1135.1373 c -0.88477,-0.026 -1.53501,-0.056 -1.44497,-0.066 0.14363,-0.016 3.07322,-0.5746 16.04997,-3.0598 6.70987,-1.285 8.79699,-1.6217 10.08068,-1.6262 1.22442,0 1.47542,0.1738 1.4464,1.027 -0.0129,0.3801 -0.35099,3.4125 -0.38432,3.4474 -0.01,0.01 -3.19701,0.059 -7.083,0.1078 -3.88598,0.049 -7.92268,0.1251 -8.97043,0.1685 -1.9944,0.083 -6.94794,0.084 -9.69433,0 z"
           id="path8" /><path
           style="fill:#c59532;fill-opacity:1;stroke:#e3cfa1;stroke-width:0.5;stroke-dasharray:none;stroke-opacity:1"
           d="m -124.12572,-1135.5405 c -0.40299,-0.3137 -1.10588,-0.8562 -1.56196,-1.2054 -2.45863,-1.8827 -5.1297,-4.0747 -5.62165,-4.6134 l -0.21167,-0.2317 0.46567,0.061 c 4.46265,0.5808 35.275026,5.9443 35.108086,6.1113 -0.0179,0.018 -0.98087,0.088 -2.13985,0.1564 -1.46718,0.086 -4.640356,0.137 -10.446906,0.1673 -4.58681,0.024 -9.80651,0.062 -11.59933,0.085 l -3.25967,0.041 z"
           id="path7" /><circle
           style="fill:#000000;fill-opacity:1;stroke:#e3cfa1;stroke-width:0.543124;stroke-dasharray:none;stroke-opacity:1"
           id="path21"
           cx="-164.10281"
           cy="-1057.204"
           r="1.8454939" /><path
           style="fill:#05265a;fill-opacity:1;stroke:#e3cfa1;stroke-width:0.8;stroke-dasharray:none;stroke-opacity:1"
           d="m -175.29371,-986.82235 c -0.12723,-0.33761 -0.58334,-1.66159 -1.01356,-2.94217 -1.64531,-4.89735 -3.05557,-7.60736 -6.85121,-13.16568 -1.04938,-1.5367 -1.90937,-2.8408 -1.91108,-2.8979 -0.002,-0.057 0.69222,-0.5666 1.54206,-1.1322 2.85615,-1.9008 4.46929,-3.2127 6.45752,-5.2514 2.32712,-2.3863 4.09082,-4.8757 5.62966,-7.9462 1.94178,-3.8745 3.27561,-8.0681 4.65692,-14.6415 1.01265,-4.819 2.20739,-9.0744 2.98546,-10.6335 1.45696,-2.9195 4.23629,-5.3766 6.95075,-6.145 0.40709,-0.1152 1.05822,-0.1957 2.00052,-0.2472 1.38026,-0.075 1.8505,-0.1461 1.86888,-0.2811 0.0129,-0.095 -3.27833,-4.5865 -4.01295,-5.4764 -0.93291,-1.1301 -3.05667,-3.1955 -4.07893,-3.9668 -0.60967,-0.4601 -1.31147,-0.8887 -2.032,-1.241 -2.33665,-1.1427 -3.26083,-1.2557 -5.54202,-0.6775 -1.76241,0.4468 -2.85237,0.9157 -4.23698,1.8227 -2.40047,1.5724 -4.95789,4.0447 -10.3788,10.0334 -1.88949,2.0874 -2.98002,3.1265 -3.956,3.7695 -2.84508,1.8743 -5.35578,1.6623 -8.96573,-0.7573 -1.8427,-1.235 -3.42076,-2.5586 -6.66568,-5.5908 -5.62657,-5.2577 -8.38158,-7.1155 -16.76979,-11.3085 -9.53128,-4.7645 -15.86109,-8.3623 -21.89401,-12.4444 -7.13087,-4.825 -12.59202,-9.8295 -15.93434,-14.602 -0.96811,-1.3824 -1.49068,-2.2629 -2.53799,-4.2763 -1.14742,-2.2059 -1.41527,-2.6323 -1.73699,-2.7656 -0.21018,-0.087 -0.26484,-0.077 -0.41478,0.072 -0.49513,0.4952 -0.78362,3.2982 -0.78218,7.5999 9.4e-4,2.8052 0.0205,3.2565 0.18682,4.318 0.79611,5.0797 3.05325,9.9081 6.96593,14.9013 0.3649,0.4657 1.29721,1.5706 2.07181,2.4553 2.30773,2.636 3.59563,4.445 3.1645,4.445 -0.38967,0 -3.1179,-1.6634 -6.38444,-3.8927 -3.14152,-2.1439 -5.42603,-3.5579 -5.74831,-3.5579 -0.20846,0 -0.25806,0.3993 -0.15249,1.2275 0.17154,1.3459 0.94061,3.6221 2.0991,6.2126 1.37975,3.0854 2.7192,5.1166 4.77342,7.2386 2.0459,2.1134 4.12723,3.5887 8.96077,6.3519 3.01979,1.7263 4.24918,2.5646 4.24918,2.8976 0,0.6342 -7.61748,-1.633 -10.45633,-3.1121 -1.58675,-0.8268 -1.65246,-0.8543 -1.78225,-0.7466 -0.3213,0.2666 0.0127,1.6253 0.77186,3.1398 0.51255,1.0226 1.26315,2.2859 1.69924,2.86 0.62955,0.8288 1.83524,2.1199 2.75378,2.9488 4.56957,4.1238 10.622,6.9973 15.31103,7.2692 1.0985,0.064 1.44318,0.1469 1.77869,0.4292 0.1922,0.1618 0.2555,0.28 0.23668,0.4423 -0.0211,0.1819 -0.11044,0.255 -0.49988,0.4092 -0.85528,0.3385 -2.14163,0.4531 -5.68532,0.5064 l -3.28083,0.049 v 0.208 c 0,0.2103 0.24185,0.4922 1.85974,2.1675 1.81183,1.8762 4.47802,3.4808 7.37322,4.4375 2.02261,0.6684 3.21999,0.8803 5.62604,0.9958 1.71254,0.082 2.72447,0.3297 3.19617,0.7815 0.49838,0.4773 0.19487,0.9132 -1.06267,1.526 -0.88964,0.4335 -1.32917,0.8075 -1.32917,1.1312 0,0.7731 3.78553,2.0968 8.09055,2.8288 0.69581,0.1184 2.65124,0.3838 4.34538,0.5899 1.69415,0.2061 3.09656,0.391 3.11648,0.4109 0.0515,0.052 -1.56929,3.2704 -2.09394,4.1587 -1.07064,1.8126 -3.08471,4.2409 -5.62296,6.7795 -1.95517,1.9555 -3.21634,3.0718 -4.95684,4.3877 -1.4151,1.0699 -2.33241,1.6403 -3.94891,2.4553 -0.69195,0.3489 -1.54374,0.8039 -1.89287,1.0111 l -0.63478,0.3767 -0.22595,-0.1901 c -0.12427,-0.1046 -1.34357,-1.2393 -2.70955,-2.5216 -3.33645,-3.1322 -5.08274,-4.5797 -8.24094,-6.8311 -5.6133,-4.0016 -11.65681,-7.449 -17.15296,-9.7844 -5.1837,-2.2027 -7.8044,-3.3941 -11.54904,-5.2505 -4.52027,-2.2408 -6.63119,-3.4721 -9.28999,-5.4185 l -1.50065,-1.0986 -0.002,-19.3464 c -0.005,-37.0035 -0.0998,-45.8092 -0.51685,-47.752 -0.21652,-1.0086 -0.46097,-1.1306 -1.09383,-0.5456 -0.44642,0.4126 -1.20734,0.7907 -1.93506,0.9615 -1.1333,0.2661 -2.41753,0.3445 -5.68494,0.347 -3.29362,0 -12.66149,-0.2282 -13.10399,-0.3227 -0.29505,-0.063 0.2946,-0.5403 25.59232,-20.7128 2.60774,-2.0795 6.65586,-5.3091 8.99584,-7.177 l 4.2545,-3.3962 0.0205,-3.9446 c 0.0449,-8.6392 -0.0303,-11.2055 -0.36698,-12.5307 -0.19288,-0.7592 -0.33472,-0.9753 -0.87546,-1.3335 -0.60162,-0.3985 -0.86102,-0.6781 -1.07672,-1.1605 -0.18131,-0.4055 -0.19639,-0.5684 -0.22551,-2.4373 l -0.0312,-2.0027 1.2142,-0.04 c 0.66782,-0.022 1.48091,-0.088 1.80687,-0.1477 0.83165,-0.1515 5.42173,-0.1328 8.80534,0.036 1.49013,0.074 3.78566,0.1352 5.10116,0.1352 l 2.39184,10e-5 -6.4e-4,1.5452 c -9.7e-4,2.3312 -0.24909,3.5062 -0.87878,4.1616 -0.49886,0.5192 -0.56241,0.7536 -0.66549,2.4549 -0.0905,1.493 -0.0881,1.5433 0.0909,1.9453 0.13544,0.3041 0.21161,0.3911 0.28971,0.3309 0.0583,-0.045 0.50601,-0.3816 0.99496,-0.7479 2.30256,-1.7252 9.52318,-7.4665 19.51516,-15.5171 19.9015,-16.0348 29.96547,-23.9708 30.4031,-23.9747 0.0505,-5e-4 0.69825,0.4803 1.43933,1.0683 0.74108,0.588 2.54757,2.0054 4.01442,3.1497 7.4282,5.795 10.24173,8.0487 45.00033,36.0472 15.32044,12.3408 33.05599,26.625 39.41234,31.7427 15.204916,12.2418 15.426096,12.4218 15.348786,12.4935 -0.0366,0.034 -2.46676,0.1224 -5.40046,0.1967 -2.933696,0.074 -5.943596,0.1527 -6.688666,0.1743 -1.69661,0.049 -4.7204,-0.08 -5.74383,-0.2449 -1.30381,-0.2102 -2.084,-0.5416 -3.56893,-1.5159 -0.46535,-0.3053 -0.87282,-0.5282 -0.90549,-0.4953 -0.0796,0.08 -0.22038,3.1932 -0.33388,7.3835 -0.0576,2.1254 -0.10565,14.3728 -0.12646,32.2157 -0.0185,15.8326 -0.053,28.9055 -0.0768,29.0509 -0.0348,0.2129 -0.14218,0.3253 -0.55281,0.5788 -0.28029,0.173 -0.72716,0.5063 -0.99305,0.7407 -0.71666,0.6319 -1.25816,1.0189 -2.33963,1.672 -2.51083,1.5164 -7.84726,4.1515 -17.27566,8.5306 -1.95425,0.9076 -4.24025,1.9821 -5.08,2.3876 -3.80442,1.8373 -9.29232,5.0038 -11.8807,6.8552 -5.96308,4.2651 -13.61308,12.14473 -17.60108,18.12925 -0.62709,0.94102 -0.96752,1.50441 -2.22551,3.683 -0.97355,1.68599 -1.85874,3.09033 -1.94792,3.09033 -0.0372,0 -0.17175,-0.27623 -0.29898,-0.61383 z m 51.25902,-56.41135 c 0.37141,-4.045 0.50594,-5.9739 0.76457,-10.9622 0.63171,-12.1847 1.23488,-27.9745 1.53142,-40.0897 0.11018,-4.5015 0.14704,-11.3472 0.0627,-11.6464 -0.0381,-0.1351 -0.56282,-0.6455 -1.397,-1.3589 -5.6411,-4.8241 -34.16549,-28.2221 -56.20002,-46.0999 -10.75437,-8.7256 -17.91175,-14.514 -18.06482,-14.6096 -0.20145,-0.1258 0.34402,-0.5499 -8.18185,6.3619 -15.54293,12.6005 -35.28126,28.5717 -58.27183,47.1507 l -9.67317,7.817 8e-5,5.3036 c 1.7e-4,11.8018 0.63278,30.2645 1.48431,43.3189 0.1835,2.8132 0.31841,4.4444 0.93107,11.2567 0.30133,3.3507 0.54787,6.1669 0.54787,6.2583 0,0.091 0.0164,0.1499 0.0363,0.1299 0.048,-0.048 0.61201,-7.9452 0.72203,-10.1095 0.26663,-5.2453 0.49983,-13.6872 0.63848,-23.114 0.0994,-6.7548 0.22938,-11.6048 0.5062,-18.8807 0.0709,-1.8627 0.1524,-4.6 0.18118,-6.083 l 0.0523,-2.6964 c 14.42491,-12.991 30.36309,-25.0652 45.4885,-37.3725 14.82234,-12.0634 25.05327,-20.0998 25.5885,-20.0998 0.19538,0 2.03081,1.4158 8.0665,6.2222 3.47857,2.7701 7.31441,5.8724 27.26266,22.0496 8.87095,7.1939 20.33906,16.487 25.48467,20.6512 5.14562,4.1643 9.39983,7.6141 9.45381,7.6664 0.0702,0.068 0.17332,2.9116 0.36255,10.001 0.65405,24.5028 1.06909,35.4235 1.70058,44.7463 0.13721,2.0257 0.31447,4.644 0.39392,5.8186 0.0795,1.1746 0.15393,2.1262 0.16552,2.1146 0.0116,-0.012 0.1749,-1.6965 0.36293,-3.7443 z m -55.50258,-19.1031 c 0.28505,-0.1934 1.07072,-0.7787 1.74594,-1.3008 2.73094,-2.1115 5.45809,-3.6449 7.28133,-4.0943 3.0752,-0.758 6.82739,-0.1701 9.49579,1.4877 1.82579,1.1343 2.08928,1.0342 3.60425,-1.37 1.15554,-1.8338 2.66178,-3.7791 4.97019,-6.419 1.46363,-1.6738 1.8404,-2.0783 5.39965,-5.7968 1.52723,-1.5955 2.77679,-2.9628 2.77679,-3.0383 0,-0.2253 -0.50362,-0.1077 -3.82215,0.892 -10.45066,3.1484 -17.93574,5.9972 -21.28982,8.103 -3.67585,2.3077 -8.57934,7.2917 -10.37968,10.5501 -0.78929,1.4284 -0.74302,1.6381 0.21771,0.9864 z"
           id="path5"
           sodipodi:nodetypes="csscsssssscssssssssssssssscssssssssssssssssscsssccssssssssscssssscssssssccssscssscssssscsccscssssssssssssscssssssssssssssssccssssssssscssssssssscssssssssscssssssssssssss" /><path
           style="fill:#c22229;fill-opacity:1;stroke:#e3cfa1;stroke-width:0.8;stroke-dasharray:none;stroke-opacity:1"
           d="m -199.47369,-944.9136 c -0.39159,-0.38486 -1.15013,-1.17668 -1.68564,-1.75959 -5.61317,-6.10995 -9.30435,-11.73028 -11.0801,-16.87094 -2.41373,-6.9876 -1.76798,-13.7381 2.06683,-21.60606 0.38584,-0.79163 1.02397,-2.01083 1.41806,-2.70933 1.23694,-2.19239 3.59398,-6.17337 3.67005,-6.19864 0.093,-0.0309 0.2822,0.32472 3.19752,6.00977 1.33175,2.59699 2.53609,4.92508 2.6763,5.17353 l 0.25494,0.45172 -1.44851,2.95448 c -2.86721,5.84815 -3.75803,8.2021 -4.27413,11.29414 -0.20983,1.25709 -0.2529,3.80567 -0.0858,5.08 0.58036,4.42733 2.17333,9.42522 4.45448,13.97583 0.63317,1.2631 1.44605,3.15855 1.68065,3.91892 0.37485,1.21487 0.17071,1.28404 -0.8446,0.28617 z"
           id="path4" /><path
           style="fill:#c59532;fill-opacity:1;stroke:#e3cfa1;stroke-width:0.8;stroke-dasharray:none;stroke-opacity:1"
           d="m -196.31442,-944.05009 c 0.0267,-0.0729 0.78109,-1.84456 1.67653,-3.937 2.50801,-5.86065 3.17815,-7.70607 3.96417,-10.91643 0.6951,-2.83897 0.96913,-5.03466 0.97216,-7.78933 0.004,-3.64583 -0.40806,-6.26091 -1.50751,-9.56734 -0.8824,-2.65366 -1.67606,-4.32726 -3.91691,-8.25969 -4.69818,-8.24471 -6.19052,-11.73519 -6.76844,-15.83102 -0.21006,-1.4886 -0.20893,-5.2922 0.002,-6.7156 0.18921,-1.2768 0.62198,-2.9902 1.02964,-4.0764 0.3005,-0.8007 1.93383,-4.4307 2.47645,-5.5038 l 0.25103,-0.4965 0.15175,0.4569 c 0.0835,0.2513 0.22265,0.5155 0.30931,0.5871 0.10803,0.089 0.18163,0.3166 0.23414,0.7229 0.0885,0.6852 1.27307,4.233 2.00703,6.0114 0.65165,1.5789 2.34963,4.9899 3.37171,6.7733 0.45369,0.7917 1.50054,2.4681 2.32633,3.72541 2.24522,3.41845 3.10849,4.89994 4.78558,8.21267 1.5474,3.05654 2.15329,4.65785 2.88323,7.62 1.19986,4.8692 1.38778,9.14459 0.59144,13.45627 -1.20493,6.52399 -4.68049,13.26717 -10.62898,20.62206 -1.33217,1.64714 -4.27128,5.071 -4.21064,4.9051 z"
           id="path3" /><path
           style="fill:#c59532;fill-opacity:1;stroke:#e3cfa1;stroke-width:0.8;stroke-dasharray:none;stroke-opacity:1"
           d="m -218.18875,-943.93869 c -0.30287,-0.33727 -0.59207,-0.77814 -1.17317,-1.78843 -1.74676,-3.03688 -9.26478,-10.15355 -16.3644,-15.49078 -3.6252,-2.7253 -5.36328,-3.7972 -9.54435,-5.88614 -4.81749,-2.40691 -8.83925,-4.22448 -15.55809,-7.03121 -6.92723,-2.89379 -9.70487,-4.14182 -13.99058,-6.28615 -7.87084,-3.93814 -13.38076,-7.61018 -18.796,-12.52642 -1.66962,-1.51578 -5.39775,-5.30664 -6.69471,-6.80737 -6.35856,-7.35761 -10.90987,-15.59641 -14.49935,-26.24671 -2.10295,-6.2397 -4.91613,-19.4818 -5.69025,-26.7849 -0.137,-1.2925 -0.16398,-3.2475 -0.0474,-3.4316 0.23827,-0.3763 2.13493,3.2577 4.95389,9.4915 5.85673,12.9514 10.77932,21.6629 16.19242,28.6556 3.19868,4.1321 6.8664,7.8301 10.51372,10.6004 4.44929,3.3795 9.12201,5.8166 15.12598,7.88927 8.51966,2.94106 12.55049,3.42235 11.2305,1.34094 -0.89409,-1.40984 -4.2327,-3.89751 -9.87584,-7.35871 -5.19725,-3.1877 -7.91584,-5.24 -10.92708,-8.249 -2.45551,-2.4537 -3.88189,-4.3512 -5.07023,-6.7449 -1.08337,-2.1823 -1.57018,-4.0893 -1.57193,-6.1579 -8.9e-4,-1.0579 0.24317,-3.9074 0.33468,-3.9074 0.026,0 1.49503,1.1684 3.26456,2.5963 3.77048,3.0427 4.59286,3.6623 6.78401,5.1112 3.9183,2.5908 7.58779,4.5953 12.98566,7.0935 13.65967,6.3219 16.80768,8.0726 21.42067,11.9129 0.67521,0.5622 1.74201,1.4392 2.37066,1.9491 1.54209,1.2507 4.41283,4.12801 6.07887,6.09275 0.75025,0.88476 1.74975,2.04681 2.22112,2.58233 2.41428,2.74286 3.95023,5.14629 6.38469,9.99067 2.34666,4.66964 4.149,8.8338 5.84498,13.50433 1.08941,3.00009 1.52095,4.59547 2.29018,8.46667 1.5658,7.87993 2.76445,17.73766 2.15681,17.73766 -0.0357,0 -0.19324,-0.14287 -0.35006,-0.3175 z"
           id="path2" /><path
           style="fill:#c59532;fill-opacity:1;stroke:#e3cfa1;stroke-width:0.8;stroke-dasharray:none;stroke-opacity:1"
           d="m -177.21902,-944.49695 c -0.062,-1.66583 0.0686,-5.92973 0.22999,-7.50624 1.24779,-12.19021 6.78897,-27.35085 13.97186,-38.227 4.63295,-7.01508 9.52403,-11.89761 16.23172,-16.20341 3.89421,-2.4997 8.05222,-4.6718 15.09512,-7.8856 9.23051,-4.212 14.69724,-7.2027 19.00767,-10.3984 1.57716,-1.1693 2.67553,-2.1152 4.93678,-4.2514 1.95073,-1.8428 2.13759,-1.9977 2.18797,-1.814 0.0303,0.1105 0.0811,0.8028 0.11282,1.5385 0.0977,2.2637 -0.28618,5.2122 -0.93512,7.1827 -0.95368,2.8957 -2.60139,5.4609 -5.23899,8.1559 -2.77722,2.8378 -5.84962,5.1364 -11.01914,8.2441 -4.39283,2.6407 -6.76551,4.3162 -8.63042,6.09447 -0.99641,0.95008 -1.47378,1.59369 -1.53818,2.0738 -0.0393,0.2929 -0.0152,0.35949 0.18736,0.51885 0.60732,0.47773 3.20304,0.0327 7.53891,-1.29242 5.54531,-1.69479 11.09979,-4.0605 14.04901,-5.9835 4.72624,-3.0817 11.046776,-8.9018 15.597066,-14.3621 3.96136,-4.7536 6.55671,-9.321 14.22987,-25.0422 2.09099,-4.2842 4.14017,-8.5446 4.55374,-9.4676 0.41357,-0.923 0.76795,-1.6302 0.78751,-1.5715 0.0196,0.059 0.24092,-0.291 0.4919,-0.7771 l 0.45634,-0.8838 -0.0491,0.762 c -0.11062,1.7169 -0.64774,7.4885 -0.84732,9.1047 -2.16882,17.5644 -8.08789,32.3889 -17.78696,44.5482 -3.40467,4.26827 -7.928926,8.79865 -12.183726,12.20023 -4.92543,3.93774 -9.97114,7.14628 -15.88536,10.10144 -3.07599,1.53697 -4.94408,2.35376 -16.24564,7.10306 -4.95406,2.08186 -5.76973,2.43627 -8.128,3.53158 -10.93192,5.0774 -19.40169,11.10828 -25.24295,17.97417 -1.06417,1.25083 -1.59591,1.94144 -3.71581,4.826 -0.99245,1.35043 -1.88767,2.55654 -1.98938,2.68023 l -0.18492,0.22491 z"
           id="path1" /><path
           style="fill:#c59532;fill-opacity:1;stroke:#e3cfa1;stroke-width:0.5;stroke-dasharray:none;stroke-opacity:1"
           d="m -193.19677,-1051.2035 c -1.4938,-1.0006 -3.30464,-2.5992 -7.70403,-6.8011 l -2.70933,-2.5877 -0.0551,-0.6773 c -0.0303,-0.3725 -0.0589,-9.5832 -0.0635,-20.4682 l -0.008,-19.7908 h -10.033 -10.033 v -5.6727 -5.6726 h 10.01944 10.01944 l 0.0557,-2.0955 c 0.0306,-1.1526 0.0558,-6.0675 0.0559,-10.922 l 1.8e-4,-8.8265 h 6.096 6.096 v 10.922 10.922 h 10.07534 10.07533 v 5.6726 5.6727 h -10.06495 -10.06495 l -0.047,19.5792 c -0.051,21.2696 -0.12967,25.9833 -0.49111,29.4282 -0.12861,1.2258 -0.24594,1.6597 -0.457,1.69 -0.0937,0.013 -0.43579,-0.1537 -0.762,-0.3723 z"
           id="path19" /></g><g
         id="g33"
         transform="matrix(1.3184439,0,0,1.3184439,156.57047,194.50688)"><g
           id="g30"
           inkscape:export-filename="HMPM.svg"
           inkscape:export-xdpi="300"
           inkscape:export-ydpi="300"><path
             style="font-size:62.642px;font-family:'Times New Normal';-inkscape-font-specification:'Times New Normal, Normal';text-align:center;letter-spacing:2.64583px;text-anchor:middle;fill:#05265a;stroke-width:0.730935"
             d="m -180.90865,-587.83834 q 1.56771,-0.82996 2.76652,-1.29105 1.19884,-0.5533 2.0288,-1.56769 0.92217,-1.01439 1.38326,-2.85873 0.46108,-1.93657 0.46108,-5.44084 v -42.23557 q 0.0922,-3.6887 -0.46108,-5.44083 -0.46109,-1.84435 -1.38326,-2.76652 -0.92218,-0.92218 -2.21323,-1.38326 -1.19883,-0.55331 -2.58209,-1.56771 h 16.96801 l 20.47228,47.49198 20.28782,-47.49198 h 16.78358 q -1.56771,0.64553 -2.76652,1.19883 -1.19884,0.46109 -2.0288,1.56769 -0.82994,1.01441 -1.29103,2.95097 -0.46109,1.93656 -0.46109,5.44083 v 42.23557 q 0,3.50427 0.46109,5.44084 0.46109,1.84434 1.29103,2.95095 0.82996,1.01439 2.0288,1.5677 1.19881,0.46109 2.76652,1.19882 h -24.62205 q 1.84435,-0.92217 3.31983,-1.38326 1.56769,-0.5533 2.67429,-1.56769 1.19883,-1.01439 1.84435,-2.85874 0.64553,-1.84435 0.64553,-5.34862 v -43.15774 l -23.14657,54.31605 -23.51545,-52.01062 0.0922,40.85231 q 0,3.50427 0.64551,5.44084 0.64553,1.84434 1.65992,2.85873 1.10661,1.01439 2.39765,1.56769 1.29105,0.46109 2.5821,1.29105 z"
             id="path23" /><path
             style="font-size:62.642px;font-family:'Times New Normal';-inkscape-font-specification:'Times New Normal, Normal';text-align:center;letter-spacing:2.64583px;text-anchor:middle;fill:#05265a;stroke-width:0.318867"
             d="m -213.07046,-626.37739 h 18.94806 q 0.44252,0 0.56321,0.76436 0.12069,0.72413 0.0805,1.72987 -0.0402,1.00573 -0.16091,2.0517 -0.1207,1.04596 -0.20115,1.6494 -0.36207,-1.52871 -0.88505,-2.37353 -0.48275,-0.84482 -1.28734,-1.24712 -0.80459,-0.40229 -1.97124,-0.48275 -1.16666,-0.12069 -2.85629,-0.12069 h -6.23556 v 10.62058 h 5.14936 q 1.04597,0 1.68964,0 0.64367,0 1.08619,-0.0805 0.48276,-0.12068 0.84482,-0.40229 0.36206,-0.28161 0.80459,-0.84483 v 4.86776 q -0.44253,-0.52297 -0.80459,-0.80458 -0.36206,-0.28161 -0.84482,-0.40229 -0.44252,-0.16093 -1.08619,-0.16093 -0.64367,-0.0402 -1.68964,-0.0402 h -5.14936 v 8.44817 q 0,1.12643 0.0402,1.97126 0.0402,0.80458 0.20115,1.40803 0.20114,0.56321 0.60344,0.9655 0.40229,0.36207 1.12642,0.64367 h -7.96542 q 0.80458,-0.2816 1.20688,-0.76436 0.40229,-0.48275 0.56321,-1.08619 0.16092,-0.64367 0.12069,-1.44826 0,-0.80459 0,-1.68964 v -18.18369 q 0,-1.16666 -0.0402,-1.97125 0,-0.84481 -0.20115,-1.40803 -0.16091,-0.60344 -0.5632,-0.96551 -0.36207,-0.40228 -1.0862,-0.64367 z"
             id="path22" /><path
             style="font-size:62.642px;font-family:'Times New Normal';-inkscape-font-specification:'Times New Normal, Normal';text-align:center;letter-spacing:2.64583px;text-anchor:middle;fill:#05265a;stroke-width:0.318867"
             d="m -228.3672,-626.37739 q 2.85629,0 5.14937,1.20688 2.29307,1.16666 3.90225,3.1379 1.60917,1.93102 2.49423,4.46547 0.88504,2.49422 0.88504,5.18959 0,2.69537 -0.88504,5.27006 -0.88506,2.53445 -2.53446,4.50569 -1.64941,1.97124 -3.98271,3.17812 -2.33331,1.20689 -5.27006,1.20689 -2.89651,0 -5.18959,-1.16666 -2.29308,-1.16665 -3.86203,-3.09766 -1.56895,-1.97124 -2.41376,-4.50569 -0.84482,-2.53446 -0.84482,-5.22983 0,-2.81606 0.88504,-5.39074 0.92528,-2.57469 2.57469,-4.5057 1.6494,-1.97124 3.94249,-3.09767 2.3333,-1.16665 5.14936,-1.16665 z m 0,26.3905 q 2.41376,0 3.90226,-1.12642 1.52871,-1.12643 2.37353,-2.89652 0.84482,-1.81032 1.12642,-3.98271 0.28161,-2.21262 0.28161,-4.38501 0,-1.89078 -0.24138,-4.02294 -0.24137,-2.17239 -1.08619,-3.98271 -0.80459,-1.81033 -2.33331,-2.97698 -1.48849,-1.20689 -4.02294,-1.20689 -2.53445,0 -4.06317,1.20689 -1.52872,1.16665 -2.37354,2.97698 -0.80459,1.81032 -1.08619,3.98271 -0.28161,2.17239 -0.28161,4.1034 0,1.97124 0.28161,4.14363 0.2816,2.17239 1.08619,3.98272 0.84482,1.81032 2.37354,3.0172 1.52872,1.16665 4.06317,1.16665 z"
             id="path20" /><path
             style="font-size:62.642px;font-family:'Times New Normal';-inkscape-font-specification:'Times New Normal, Normal';text-align:center;letter-spacing:2.64583px;text-anchor:middle;fill:#05265a;stroke-width:0.580642"
             d="m -298.54851,-587.81018 q 1.17209,-0.58604 1.9779,-1.09884 0.80583,-0.58604 1.24536,-1.46512 0.51279,-0.87906 0.65931,-2.34418 0.21976,-1.53838 0.21976,-4.10233 v -33.33146 q 0,-2.41745 -0.21976,-3.95583 -0.14652,-1.53837 -0.65931,-2.41745 -0.43953,-0.95232 -1.24536,-1.46512 -0.80581,-0.58604 -1.9779,-1.09883 h 36.4082 q 1.02559,0 1.31861,1.24535 0.36628,1.24535 0.43954,3.0035 0.0732,1.68489 -0.0732,3.58954 -0.14651,1.8314 -0.14651,3.15 -1.09884,-2.63721 -2.19768,-4.10233 -1.09884,-1.53838 -2.56396,-2.19768 -1.39186,-0.73256 -3.22326,-0.87907 -1.8314,-0.14652 -4.39536,-0.14652 h -14.06515 v 19.41283 h 11.28142 q 2.12443,0 3.44304,0 1.39185,0 2.34419,-0.14651 0.95233,-0.21977 1.75814,-0.73256 0.80581,-0.51278 1.90465,-1.53837 v 7.69187 q -1.09884,-1.02558 -1.90465,-1.53837 -0.80581,-0.5128 -1.75814,-0.73256 -0.95234,-0.21977 -2.27094,-0.21977 -1.31861,0 -3.51629,0 h -11.28142 v 16.18956 q 0,3.29652 0.36628,4.24885 0.21978,0.51279 0.65931,0.87907 0.43953,0.29303 0.95233,0.43953 0.58604,0.14652 1.17209,0.21978 0.65931,0 1.09884,0 h 8.71746 q 2.12443,0 4.10234,-0.14652 2.05117,-0.14651 3.22326,-0.51279 1.24535,-0.36628 2.34418,-1.31861 1.09884,-0.95232 2.05118,-2.19768 0.95232,-1.24535 1.83139,-2.71047 0.87907,-1.46512 1.75815,-2.93023 -0.21977,1.75814 -0.43955,4.10233 -0.1465,2.27093 -0.51278,4.3221 -0.29303,1.97791 -0.87907,3.44302 -0.58605,1.39187 -1.53838,1.39187 z"
             id="path18" /><path
             style="font-size:62.642px;font-family:'Times New Normal';-inkscape-font-specification:'Times New Normal, Normal';text-align:center;letter-spacing:2.64583px;text-anchor:middle;fill:#05265a;stroke-width:0.580642"
             d="m -322.74038,-639.01608 q 1.1721,0.0732 2.85698,0.29302 1.75814,0.21977 3.66279,0.80582 1.24536,0.36628 2.19768,0.65929 0.95233,0.21978 1.75815,0.43955 0.87908,0.14651 1.68489,0.21976 0.87907,0 1.9779,-0.14651 v 13.99189 q -2.41743,-6.44653 -6.1535,-10.10933 -3.73605,-3.73605 -8.35117,-3.73605 -2.12442,0 -3.80931,0.80581 -1.68488,0.80583 -2.78372,2.12443 -1.09884,1.31861 -1.68489,3.00349 -0.51279,1.61164 -0.36628,3.29652 0.1465,1.75814 0.95233,3.07675 0.80581,1.3186 1.97791,2.41744 1.17209,1.02559 2.56395,1.90467 1.46512,0.87906 2.85699,1.68488 l 7.54535,4.54187 q 2.56396,1.53838 4.54188,3.00349 2.05116,1.39187 3.44302,2.93024 1.39187,1.53838 2.12443,3.36977 0.73256,1.8314 0.73256,4.17559 0,3.22326 -1.39187,5.56745 -1.3186,2.3442 -3.51628,3.88257 -2.19767,1.53837 -5.05466,2.27093 -2.78373,0.73256 -5.78722,0.73256 -2.19768,0 -4.76164,-0.36628 -2.4907,-0.36628 -4.90814,-1.09884 -1.24536,-0.36628 -2.05117,-0.51279 -0.73256,-0.14651 -1.17209,-0.14651 -0.73256,0 -1.53838,0.21977 -0.80582,0.21977 -2.4907,1.17209 v -14.87095 q 2.56396,5.86048 6.59303,9.37675 4.02908,3.51629 10.25584,3.51629 1.90465,0 3.36977,-0.6593 1.53837,-0.65931 2.63721,-1.68489 1.09884,-1.02558 1.68489,-2.34419 0.58604,-1.39186 0.58604,-2.71046 0,-1.46512 -0.73256,-2.85699 -0.65929,-1.46512 -1.90465,-2.71046 -1.24535,-1.24536 -3.73605,-2.78373 -2.49071,-1.61163 -6.1535,-3.36978 -2.49071,-1.24535 -4.83489,-2.4907 -2.27094,-1.31861 -4.02908,-3.00349 -1.68489,-1.68489 -2.78373,-3.95583 -1.02558,-2.27093 -1.02558,-5.49419 -0.0733,-3.29652 0.95232,-6.00698 1.02559,-2.71048 2.93024,-4.61513 1.97792,-1.97791 4.76164,-2.93024 2.85698,-1.02559 6.37327,-0.87907 z"
             id="path17" /><path
             style="font-size:62.642px;font-family:'Times New Normal';-inkscape-font-specification:'Times New Normal, Normal';text-align:center;letter-spacing:2.64583px;text-anchor:middle;fill:#05265a;stroke-width:0.580642"
             d="m -385.90437,-639.0894 h 16.26283 q -0.58605,0.5128 -1.31861,0.80582 -0.73256,0.21976 -1.39187,0.95232 -0.65929,0.73256 -1.09883,2.3442 -0.43954,1.53837 -0.43954,4.76164 v 21.83026 q 0,3.58955 0.36628,6.73956 0.43954,3.15 1.61164,5.49418 1.17209,2.27094 3.22325,3.58954 2.12443,1.31862 5.4942,1.31862 4.02908,0 6.30002,-1.75815 2.27093,-1.8314 3.36977,-4.54186 1.17209,-2.78373 1.39185,-6.08025 0.29303,-3.29652 0.29303,-6.30001 v -20.29189 q 0,-3.22327 -0.43953,-4.76164 -0.43954,-1.61164 -1.09884,-2.3442 -0.65931,-0.73256 -1.46512,-0.95232 -0.73256,-0.29302 -1.39187,-0.80582 h 13.03957 q -0.65931,0.5128 -1.46512,0.80582 -0.80581,0.21976 -1.53837,1.02558 -0.73256,0.73256 -1.24536,2.41745 -0.43954,1.61162 -0.43954,4.90814 v 20.29191 q 0,2.71046 -0.21977,5.34767 -0.14651,2.63723 -0.73256,5.05467 -0.58604,2.34418 -1.8314,4.46861 -1.17209,2.05117 -3.29651,3.73605 -4.17559,3.22326 -10.91513,3.22326 -2.63721,0 -5.05466,-0.51279 -2.41746,-0.51279 -4.46861,-1.68489 -1.97792,-1.24534 -3.58955,-3.22326 -1.53837,-2.05116 -2.56396,-5.05465 -1.02558,-3.44304 -1.02558,-12.38026 v -19.55933 q 0,-3.22327 -0.43954,-4.76164 -0.43953,-1.61164 -1.09883,-2.3442 -0.65931,-0.73256 -1.39187,-0.95232 -0.73256,-0.29302 -1.39187,-0.80582 z"
             id="path16" /><path
             style="font-size:62.642px;font-family:'Times New Normal';-inkscape-font-specification:'Times New Normal, Normal';text-align:center;letter-spacing:2.64583px;text-anchor:middle;fill:#05265a;stroke-width:0.580642"
             d="m -413.17299,-639.0894 q 5.20117,0 9.37676,2.19768 4.17559,2.12442 7.10583,5.71396 2.93024,3.51629 4.54187,8.13141 1.61162,4.54188 1.61162,9.45002 0,4.90815 -1.61162,9.59653 -1.61163,4.61513 -4.61513,8.20466 -3.0035,3.58954 -7.25233,5.78722 -4.24885,2.19768 -9.59653,2.19768 -5.27444,0 -9.45002,-2.12442 -4.1756,-2.12442 -7.03257,-5.64071 -2.85698,-3.58954 -4.39536,-8.20466 -1.53838,-4.61513 -1.53838,-9.52327 0,-5.12792 1.61164,-9.8163 1.68488,-4.68838 4.68838,-8.20466 3.00349,-3.58955 7.17908,-5.64072 4.24885,-2.12442 9.37676,-2.12442 z m 0,48.0559 q 4.39536,0 7.10583,-2.05116 2.78373,-2.05117 4.3221,-5.27443 1.53837,-3.29651 2.05117,-7.25234 0.51279,-4.02907 0.51279,-7.9849 0,-3.44302 -0.43954,-7.32559 -0.43953,-3.95583 -1.97791,-7.25234 -1.46512,-3.29652 -4.24884,-5.42095 -2.71048,-2.19768 -7.3256,-2.19768 -4.61513,0 -7.39885,2.19768 -2.78373,2.12443 -4.3221,5.42095 -1.46512,3.29651 -1.97792,7.25234 -0.51278,3.95582 -0.51278,7.4721 0,3.58954 0.51278,7.54537 0.5128,3.95582 1.97792,7.25234 1.53837,3.29652 4.3221,5.49419 2.78372,2.12442 7.39885,2.12442 z"
             id="path6" /><path
             style="font-size:62.642px;font-family:'Times New Normal';-inkscape-font-specification:'Times New Normal, Normal';text-align:center;letter-spacing:2.64583px;text-anchor:middle;fill:#05265a;stroke-width:0.731239"
             d="m -489.83319,-599.24995 v -41.69959 q 0,-5.07406 -0.64579,-6.45789 -0.36903,-1.10706 -1.93736,-2.12187 -0.92257,-0.46128 -1.66061,-0.73806 -0.64579,-0.27677 -1.29159,-0.46127 -0.64578,-0.27678 -1.38384,-0.64579 -0.64578,-0.36903 -1.66059,-1.01482 h 26.47739 q -1.38384,0.8303 -2.3064,1.29158 -0.92256,0.36903 -1.6606,0.6458 -0.64579,0.27676 -1.19932,0.46128 -0.46128,0.1845 -0.92256,0.46128 -1.38384,0.64578 -2.02962,2.12187 -0.6458,1.66061 -0.6458,6.45789 v 18.54341 h 26.66191 v -18.54341 q 0,-4.9818 -0.55353,-6.45789 -0.55354,-1.19932 -2.02963,-2.12187 -0.92256,-0.46128 -1.75286,-0.73806 -0.73805,-0.27677 -1.4761,-0.46127 -0.73803,-0.27678 -1.56834,-0.64579 -0.8303,-0.36903 -1.84511,-1.01482 h 26.93866 q -1.38384,0.92255 -2.6754,1.56835 -1.29159,0.55353 -2.39867,1.10707 -1.01481,0.46128 -1.84511,1.10707 -0.73804,0.55354 -1.01481,1.56834 -0.18449,0.64579 -0.36902,2.21415 -0.18449,1.47609 -0.18449,3.87472 v 41.69959 q 0,5.07406 0.64578,6.4579 0.36902,0.92255 1.29158,1.56835 1.0148,0.55353 2.21413,1.10707 1.19933,0.55352 2.39865,1.10707 1.19933,0.46128 2.02963,1.19932 h -27.03093 q 1.29158,-1.01481 2.85992,-1.56834 1.56836,-0.55353 2.95219,-1.47609 1.47609,-1.01483 2.39865,-2.85994 1.01481,-1.84511 1.01481,-5.53534 v -19.65046 h -26.66191 v 19.65046 q 0,4.98181 0.55354,6.36565 0.46128,1.19932 1.38383,1.93736 1.01482,0.64581 2.21414,1.19933 1.29159,0.46128 2.58316,0.92256 1.29159,0.36903 2.30639,1.01481 h -26.75415 q 1.38385,-1.29159 2.85993,-1.84511 1.56833,-0.55354 2.76766,-1.47609 1.29159,-0.92256 2.12189,-2.67543 0.8303,-1.75285 0.8303,-5.44308 z"
             id="text1" /><path
             style="font-size:62.642px;font-family:'Times New Normal';-inkscape-font-specification:'Times New Normal, Normal';text-align:center;letter-spacing:2.64583px;text-anchor:middle;fill:#05265a;fill-opacity:1;stroke-width:0.580654"
             d="m 166.84906,-639.04522 q 1.17212,0.0731 2.85703,0.29302 1.75818,0.21977 3.66287,0.80584 1.24537,0.36628 2.19772,0.65932 0.95234,0.21977 1.75818,0.43954 0.87908,0.14651 1.68492,0.21978 0.87909,0 1.97794,-0.14652 v 13.99214 q -2.41748,-6.44664 -6.15361,-10.10952 -3.73612,-3.7361 -8.35134,-3.7361 -2.12447,0 -3.80938,0.8058 -1.68492,0.80585 -2.78378,2.12447 -1.09887,1.31865 -1.68494,3.00356 -0.5128,1.61168 -0.36628,3.29658 0.14652,1.75818 0.95235,3.07682 0.80583,1.31863 1.97795,2.41748 1.17213,1.02562 2.564,1.9047 1.46515,0.87908 2.85704,1.68491 l 7.54552,4.54197 q 2.564,1.53839 4.54195,3.00355 2.05121,1.3919 3.4431,2.93029 1.39188,1.5384 2.12446,3.36984 0.73257,1.83143 0.73257,4.17566 0,3.22332 -1.39188,5.56755 -1.31863,2.34424 -3.51636,3.88265 -2.19772,1.5384 -5.05476,2.27098 -2.78377,0.73257 -5.78733,0.73257 -2.19773,0 -4.76173,-0.36628 -2.49074,-0.36629 -4.90824,-1.09887 -1.24537,-0.36628 -2.05122,-0.51279 -0.73258,-0.14653 -1.17212,-0.14653 -0.73258,0 -1.53842,0.21978 -0.80582,0.21978 -2.49077,1.17212 v -14.87123 q 2.56403,5.86059 6.5932,9.37693 4.02917,3.51635 10.25604,3.51635 1.90469,0 3.36984,-0.65933 1.53842,-0.65931 2.63727,-1.68491 1.09886,-1.02559 1.68492,-2.34422 0.58606,-1.39191 0.58606,-2.71053 0,-1.46516 -0.73258,-2.85704 -0.65931,-1.46514 -1.90469,-2.71051 -1.24537,-1.24538 -3.73613,-2.78379 -2.49074,-1.61165 -6.1536,-3.36984 -2.49076,-1.24539 -4.835,-2.49074 -2.27098,-1.31864 -4.02918,-3.00356 -1.68492,-1.68492 -2.78378,-3.9559 -1.02562,-2.27098 -1.02562,-5.49429 -0.0732,-3.29658 0.95236,-6.00711 1.0256,-2.71052 2.93031,-4.61522 1.97795,-1.97793 4.76175,-2.93029 2.85702,-1.0256 6.37339,-0.87908 z"
             id="path30" /><path
             style="font-size:62.642px;font-family:'Times New Normal';-inkscape-font-specification:'Times New Normal, Normal';text-align:center;letter-spacing:2.64583px;text-anchor:middle;fill:#05265a;fill-opacity:1;stroke-width:0.580654"
             d="m 104.85577,-587.83834 q 1.17211,-0.58605 1.97795,-1.09886 0.80582,-0.58605 1.24537,-1.46515 0.5128,-0.87908 0.65932,-2.34423 0.21976,-1.53839 0.21976,-4.10241 v -33.33209 q 0,-2.4175 -0.21976,-3.9559 -0.14652,-1.5384 -0.65932,-2.4175 -0.43955,-0.95234 -1.24537,-1.46514 -0.80584,-0.58606 -1.97795,-1.09887 h 36.40892 q 1.02561,0 1.31864,1.24538 0.36629,1.24539 0.43954,3.00355 0.0732,1.68493 -0.0732,3.58961 -0.14651,1.83144 -0.14651,3.15007 -1.09886,-2.63727 -2.19773,-4.10242 -1.09887,-1.53839 -2.56402,-2.19771 -1.3919,-0.73258 -3.22333,-0.87908 -1.83144,-0.14652 -4.39544,-0.14652 H 116.3572 v 19.41319 h 11.28163 q 2.12447,0 3.4431,0 1.39188,0 2.34422,-0.14651 0.95236,-0.21977 1.75819,-0.73257 0.80582,-0.5128 1.90468,-1.53841 v 7.69203 q -1.09886,-1.02561 -1.90468,-1.53841 -0.80583,-0.51281 -1.75819,-0.73257 -0.95234,-0.21978 -2.27097,-0.21978 -1.31863,0 -3.51635,0 H 116.3572 v 16.18987 q 0,3.29658 0.36629,4.24894 0.21977,0.5128 0.65932,0.87908 0.43954,0.29304 0.95234,0.43955 0.58606,0.14652 1.17211,0.21977 0.65932,0 1.09887,0 h 8.71762 q 2.12447,0 4.1024,-0.14653 2.05122,-0.14651 3.22333,-0.51279 1.24538,-0.36628 2.34424,-1.31863 1.09886,-0.95235 2.05123,-2.19773 0.95233,-1.24536 1.83144,-2.71052 0.87909,-1.46514 1.75819,-2.93029 -0.21977,1.75818 -0.43955,4.10241 -0.14652,2.27097 -0.5128,4.3222 -0.29304,1.97794 -0.8791,3.44308 -0.58606,1.39189 -1.53841,1.39189 z"
             id="path29" /><path
             style="font-size:62.642px;font-family:'Times New Normal';-inkscape-font-specification:'Times New Normal, Normal';text-align:center;letter-spacing:2.64583px;text-anchor:middle;fill:#05265a;fill-opacity:1;stroke-width:0.580654"
             d="m 59.858386,-587.83834 q 1.09885,-0.80584 2.41748,-1.17211 1.31863,-0.36628 2.41749,-1.09886 1.09888,-0.80584 1.83144,-2.27099 0.73257,-1.53839 0.73257,-4.54194 v -33.11233 q 0,-3.15006 -0.80582,-4.6152 -0.73258,-1.53843 -1.83143,-2.19773 -1.09887,-0.73258 -2.4175,-1.02561 -1.24538,-0.36628 -2.34423,-1.24538 h 23.66212 q -1.09887,0.8791 -2.56402,1.24538 -1.46514,0.36629 -2.85702,1.17212 -1.31864,0.80583 -2.27099,2.49075 -0.87907,1.61166 -0.87907,5.05476 v 32.23324 q 0,3.0768 0.58605,4.24893 0.43954,0.80581 1.24537,1.09884 1.09887,0.51281 6.08036,0.51281 h 1.68492 q 4.61521,0 7.47225,-0.65931 2.857037,-0.73257 4.54195,-1.75818 1.758185,-1.02562 2.564008,-2.27097 0.805833,-1.31865 1.245386,-2.49076 0.43954,-1.24537 0.80583,-2.19772 0.36629,-0.95235 1.17213,-1.31865 -0.21977,1.46516 -0.51281,3.8094 -0.21977,2.34424 -0.73258,4.61521 -0.43955,2.27098 -1.172123,3.88264 -0.732575,1.61166 -1.977949,1.61166 z"
             id="path28" /><path
             style="font-size:62.642px;font-family:'Times New Normal';-inkscape-font-specification:'Times New Normal, Normal';text-align:center;letter-spacing:2.64583px;text-anchor:middle;fill:#05265a;fill-opacity:1;stroke-width:0.580654"
             d="m 38.816066,-639.11849 q 2.34425,0 4.24893,0.36629 1.90469,0.36629 3.36985,0.80584 1.5384,0.36628 2.63726,0.73258 1.09885,0.36628 1.83143,0.36628 0.73258,0 1.83143,-0.51281 1.17212,-0.5128 2.05122,-1.97794 v 14.87124 q -1.17212,-3.07681 -2.56402,-5.20128 -1.39189,-2.12446 -3.22333,-3.44309 -1.75817,-1.31863 -4.10242,-1.90469 -2.34423,-0.58606 -5.42104,-0.58606 -3.51636,0 -6.15362,2.05121 -2.63727,2.0512 -4.46869,5.34778 -1.83144,3.22333 -2.78377,7.25248 -0.8791,3.9559 -0.8791,7.9118 0,4.76172 0.95235,8.71762 0.95234,3.95589 2.85704,6.81293 1.90468,2.78377 4.68846,4.39545 2.78379,1.53839 6.51991,1.53839 2.71052,0 4.9815,-0.80583 2.27097,-0.87908 4.17568,-2.27097 1.97795,-1.46514 3.58961,-3.4431 1.68492,-2.0512 3.15007,-4.32218 l -0.0733,1.46515 q -0.0733,1.09887 -1.09885,3.29658 -0.95234,2.12446 -3.15008,4.32218 -2.19772,2.19772 -5.71407,3.88264 -3.44309,1.61166 -8.49785,1.61166 -5.27453,0 -9.23043,-1.97794 -3.88265,-1.97796 -6.51991,-5.3478 -2.56401,-3.44309 -3.88263,-7.98503 -1.31863,-4.61522 -1.31863,-9.88975 0,-6.00711 1.61165,-10.76883 1.61166,-4.83499 4.54197,-8.20483 2.93028,-3.44309 7.03269,-5.27452 4.10241,-1.83145 9.01066,-1.83145 z"
             id="path27" /><path
             style="font-size:62.642px;font-family:'Times New Normal';-inkscape-font-specification:'Times New Normal, Normal';text-align:center;letter-spacing:2.64583px;text-anchor:middle;fill:#05265a;fill-opacity:1;stroke-width:0.580654"
             d="m -27.792294,-587.83834 q 1.24538,-1.09886 1.75818,-1.39189 0.58606,-0.3663 1.17212,-1.02561 0.65932,-0.73255 1.6849,-2.78377 1.02562,-2.05121 2.05122,-4.83497 l 16.4096504,-41.24391 15.8968396,41.68343 q 0.58605,1.61166 1.17211,3.15009 0.58608,1.46514 1.3919,2.7105 0.80583,1.17212 1.83142,2.12447 1.09887,0.95234 2.71052,1.61166 H 0.6315661 q 0.8058201,-0.51279 1.4651501,-0.87907 0.73256,-0.43955 1.24537,-0.87912 0.5128,-0.43953 0.80582,-1.02559 0.36629,-0.65931 0.36629,-1.61166 0,-1.61166 -1.24536,-5.12801 l -2.6372701,-7.25247 H -14.752484 l -3.15007,7.91179 q -0.58606,1.46515 -0.80583,2.564 -0.21976,1.02561 -0.21976,1.75817 0,1.02562 0.36628,1.68493 0.36629,0.65931 0.87909,1.17212 0.58605,0.43953 1.31863,0.87907 0.73257,0.36629 1.39188,0.80584 z m 14.35844,-19.99925 h 12.82005018 l -6.22688978,-16.62942 z"
             id="path26" /><path
             style="font-size:62.642px;font-family:'Times New Normal';-inkscape-font-specification:'Times New Normal, Normal';text-align:center;letter-spacing:2.64583px;text-anchor:middle;fill:#05265a;fill-opacity:1;stroke-width:0.580654"
             d="m -69.493185,-596.92224 v -33.11233 q 0,-2.41749 -0.14652,-3.88263 -0.14652,-1.46515 -0.65931,-2.4175 -0.43955,-0.95234 -1.46516,-1.53841 -0.95234,-0.58606 -2.63726,-1.24538 h 16.849191 q 4.10242,0 7.61877,0.58606 3.58961,0.51281 6.22687,2.05121 2.63727,1.53841 4.17568,4.24892 1.5384,2.71054 1.5384,7.03271 0,3.36985 -0.95235,5.86059 -0.87909,2.4175 -2.49074,4.10242 -1.53841,1.68491 -3.66288,2.71051 -2.05121,1.02562 -4.32218,1.46515 l 9.59671,13.18634 q 1.97795,2.78376 3.51635,4.54194 1.53841,1.68493 2.71053,2.71052 1.17212,1.02559 2.0512,1.61167 0.87909,0.58606 1.53841,1.17211 h -9.963 l -16.84919,-22.92954 q -2.71053,-0.36629 -4.9815,-1.09887 v 14.94451 q 0.14652,1.97794 0.29303,3.44309 0.14652,1.39189 0.58605,2.41749 0.43955,1.0256 1.31863,1.83143 0.95235,0.73257 2.56403,1.39189 h -17.362011 q 1.75818,-0.87907 2.71053,-1.75819 0.95234,-0.95233 1.46515,-2.05118 0.5128,-1.09887 0.58605,-2.34425 0.14652,-1.31863 0.14652,-2.93028 z m 7.692021,-17.28876 q 3.00355,0.43957 5.56756,0.43957 2.19771,0 4.02915,-0.43957 1.90469,-0.51278 3.29659,-1.6849 1.39189,-1.24539 2.12446,-3.29658 0.80583,-2.12446 0.87908,-5.3478 0.0732,-3.44309 -1.17212,-5.86057 -1.24537,-2.41749 -3.44308,-3.88264 -2.19774,-1.46515 -5.12804,-1.90471 -2.85702,-0.51279 -6.1536,-0.0731 z"
             id="path25" /><path
             style="font-size:62.642px;font-family:'Times New Normal';-inkscape-font-specification:'Times New Normal, Normal';text-align:center;letter-spacing:2.64583px;text-anchor:middle;fill:#05265a;fill-opacity:1;stroke-width:0.580654"
             d="m -80.352705,-639.11849 q -0.73257,0.65932 -2.05119,1.02561 -1.24536,0.29303 -2.41748,1.02561 -1.17211,0.73257 -2.0512,2.34423 -0.87908,1.53841 -0.87908,4.68847 v 33.11233 q 0,3.0768 0.80583,4.61521 0.80582,1.46514 1.90468,2.19772 1.17211,0.73258 2.41747,1.09886 1.31863,0.36627 2.27097,1.17211 H -102.3298 q 0.65931,-0.73257 1.9047,-1.02561 1.245361,-0.36628 2.417465,-1.09886 1.245376,-0.73256 2.124466,-2.27097 0.87906,-1.53841 0.87906,-4.68846 v -33.11233 q 0,-3.15006 -0.80582,-4.68847 -0.80582,-1.61166 -1.97793,-2.34423 -1.09885,-0.73258 -2.344221,-1.02561 -1.24536,-0.36629 -2.19772,-1.02561 z"
             id="path24" /></g><g
           id="g34"
           transform="matrix(1.0679604,0,0,1.0679604,34.025337,38.647279)"><text
             xml:space="preserve"
             style="font-style:normal;font-variant:normal;font-weight:normal;font-stretch:normal;font-size:33.7014px;font-family:'NEXT ART';-inkscape-font-specification:'NEXT ART, Normal';font-variant-ligatures:normal;font-variant-caps:normal;font-variant-numeric:normal;font-variant-east-asian:normal;text-align:center;letter-spacing:5.29167px;writing-mode:lr-tb;direction:ltr;text-anchor:middle;fill:#c59532;fill-opacity:1;stroke:none;stroke-width:0.8;stroke-dasharray:none;stroke-opacity:1"
             x="-179.39297"
             y="-544.97791"
             id="text62"><tspan
               sodipodi:role="line"
               id="tspan62"
               style="font-style:normal;font-variant:normal;font-weight:normal;font-stretch:normal;font-size:33.7014px;font-family:'NEXT ART';-inkscape-font-specification:'NEXT ART, Normal';font-variant-ligatures:normal;font-variant-caps:normal;font-variant-numeric:normal;font-variant-east-asian:normal;letter-spacing:5.29167px;fill:#c59532;fill-opacity:1;stroke:none;stroke-width:0.8;stroke-dasharray:none;stroke-opacity:1"
               x="-176.74715"
               y="-544.97791">PROPHETIC MINISTRIES</tspan></text><g
             id="g31"
             transform="translate(1.9405975,13.75061)"><rect
               style="fill:#c59532;fill-opacity:1;stroke:#e3cfa1;stroke-width:0.357763;stroke-dasharray:none;stroke-opacity:1"
               id="rect63"
               width="37.348179"
               height="2.6871746"
               x="72.772034"
               y="-570.35663"
               inkscape:export-filename="HMPM.svg"
               inkscape:export-xdpi="300"
               inkscape:export-ydpi="300" /><path
               style="fill:#c22229;fill-opacity:1;stroke:#e3cfa1;stroke-width:0.8;stroke-dasharray:none;stroke-opacity:1"
               d="m 127.8417,-557.98527 c -0.0106,-0.03 -0.0652,-0.3101 -0.12127,-0.6224 -0.51053,-2.8441 -0.98397,-4.5045 -1.63052,-5.718 -1.23218,-2.3129 -3.18342,-3.322 -8.10848,-4.1935 -0.50157,-0.088 -0.9193,-0.1684 -0.92827,-0.1771 -0.0334,-0.032 0.0255,-0.048 0.40796,-0.1111 1.33111,-0.2189 2.5269,-0.4752 3.75975,-0.8058 1.5047,-0.4035 2.83235,-1.075 3.63422,-1.8381 1.37176,-1.3055 2.10077,-3.1434 2.81253,-7.091 0.0913,-0.5062 0.1784,-0.935 0.19362,-0.9528 0.0152,-0.018 0.0663,0.1847 0.11347,0.4504 0.51294,2.8869 0.94942,4.4838 1.56944,5.7417 0.41874,0.8497 0.82321,1.3998 1.41587,1.926 1.30726,1.1607 3.1458,1.8279 6.86556,2.491 0.76764,0.1369 0.837,0.1538 0.79695,0.1937 -0.017,0.017 -0.63047,0.1357 -1.30519,0.2524 -2.07655,0.3592 -3.84312,0.8803 -4.98553,1.4705 -1.32388,0.6841 -2.17839,1.5729 -2.84256,2.957 -0.54745,1.1408 -1.0108,2.8248 -1.45388,5.2839 -0.0753,0.4182 -0.14542,0.7688 -0.15568,0.7792 -0.0106,0.011 -0.0274,-0.011 -0.038,-0.036 z"
               id="path69" /></g><g
             id="g32"
             transform="matrix(-1,0,0,1,-359.52529,13.75061)"
             inkscape:export-filename="hmpm-logo.svg"
             inkscape:export-xdpi="300"
             inkscape:export-ydpi="300"><rect
               style="fill:#c59532;fill-opacity:1;stroke:#e3cfa1;stroke-width:0.357763;stroke-dasharray:none;stroke-opacity:1"
               id="rect31"
               width="37.348179"
               height="2.6871746"
               x="72.772034"
               y="-570.35663"
               inkscape:export-filename="HMPM.svg"
               inkscape:export-xdpi="300"
               inkscape:export-ydpi="300" /><path
               style="fill:#c22229;fill-opacity:1;stroke:#e3cfa1;stroke-width:0.8;stroke-dasharray:none;stroke-opacity:1"
               d="m 127.8417,-557.98527 c -0.0106,-0.03 -0.0652,-0.3101 -0.12127,-0.6224 -0.51053,-2.8441 -0.98397,-4.5045 -1.63052,-5.718 -1.23218,-2.3129 -3.18342,-3.322 -8.10848,-4.1935 -0.50157,-0.088 -0.9193,-0.1684 -0.92827,-0.1771 -0.0334,-0.032 0.0255,-0.048 0.40796,-0.1111 1.33111,-0.2189 2.5269,-0.4752 3.75975,-0.8058 1.5047,-0.4035 2.83235,-1.075 3.63422,-1.8381 1.37176,-1.3055 2.10077,-3.1434 2.81253,-7.091 0.0913,-0.5062 0.1784,-0.935 0.19362,-0.9528 0.0152,-0.018 0.0663,0.1847 0.11347,0.4504 0.51294,2.8869 0.94942,4.4838 1.56944,5.7417 0.41874,0.8497 0.82321,1.3998 1.41587,1.926 1.30726,1.1607 3.1458,1.8279 6.86556,2.491 0.76764,0.1369 0.837,0.1538 0.79695,0.1937 -0.017,0.017 -0.63047,0.1357 -1.30519,0.2524 -2.07655,0.3592 -3.84312,0.8803 -4.98553,1.4705 -1.32388,0.6841 -2.17839,1.5729 -2.84256,2.957 -0.54745,1.1408 -1.0108,2.8248 -1.45388,5.2839 -0.0753,0.4182 -0.14542,0.7688 -0.15568,0.7792 -0.0106,0.011 -0.0274,-0.011 -0.038,-0.036 z"
               id="path31" /></g></g></g></g></g></svg>
